<svg width="175" height="174" viewBox="0 0 175 174" fill="none" xmlns="http://www.w3.org/2000/svg">
<path fill-rule="evenodd" clip-rule="evenodd" d="M70.3213 160.772C70.354 160.772 70.3867 160.806 70.4521 160.806C71.6621 161.102 71.8255 162.489 71.2699 163.183C70.5501 164.074 69.8964 164.998 69.242 165.923C67.8687 167.772 66.528 169.653 65.1545 171.469C63.9118 173.12 61.7208 173.417 60.1511 172.262C59.7587 171.964 59.4644 171.569 59.1701 171.206C57.5677 169.026 55.9653 166.88 54.363 164.701C54.363 164.701 54.363 164.701 54.3302 164.668C54.2648 164.767 54.1667 164.866 54.1013 164.966C52.4989 167.144 50.9293 169.29 49.3268 171.469C48.0515 173.186 45.7297 173.45 44.1273 172.097C43.8002 171.799 43.5386 171.436 43.2443 171.073C41.5766 168.828 39.8761 166.55 38.2083 164.272C37.9467 163.909 37.6524 163.546 37.3907 163.183C37.1945 162.918 37.0637 162.621 37.031 162.291C37.031 162.225 37.031 162.192 37.031 162.126C37.031 162.093 37.0637 162.06 37.0637 162.027C37.1291 161.598 37.2926 161.267 37.6524 161.037C37.8485 160.904 38.0775 160.839 38.3064 160.739C38.4699 160.739 38.6007 160.739 38.7315 160.739C38.7642 160.739 38.7969 160.772 38.7969 160.772C39.1566 160.839 39.4509 161.037 39.6472 161.334C41.4458 163.777 43.277 166.22 45.0756 168.663C45.3699 169.026 45.6315 169.423 45.9913 169.72C46.2529 169.951 46.4818 169.951 46.7434 169.72C46.9396 169.521 47.1032 169.356 47.2667 169.125C48.9672 166.847 50.6677 164.602 52.3681 162.324C52.6297 161.994 52.8586 161.664 53.1203 161.334C53.3492 161.004 53.7089 160.839 54.0686 160.739C54.2321 160.739 54.3956 160.739 54.5591 160.739C54.5918 160.739 54.6246 160.772 54.6246 160.772C54.9842 160.839 55.2786 161.037 55.4748 161.334C57.2734 163.777 59.1047 166.22 60.9033 168.663C61.1976 169.026 61.4592 169.423 61.8189 169.72C62.0805 169.951 62.3095 169.951 62.5711 169.72C62.7672 169.521 62.9308 169.356 63.0943 169.125C64.7948 166.847 66.4953 164.602 68.1954 162.324C68.4576 161.994 68.6864 161.664 68.9479 161.334C69.1767 161.004 69.5362 160.839 69.8964 160.739C70.0272 160.772 70.1906 160.772 70.3213 160.772Z" fill="#464747"/>
<path fill-rule="evenodd" clip-rule="evenodd" d="M114.766 168.539C114.766 168.975 114.766 169.377 114.766 169.745C114.766 169.979 115.027 170.18 115.288 170.214C115.386 170.214 115.452 170.214 115.55 170.214C120.807 170.214 126.064 170.214 131.354 170.214C131.975 170.214 132.465 170.548 132.66 171.117C132.987 172.022 132.334 172.959 131.42 172.959C126.031 172.959 120.644 172.959 115.256 172.959C114.146 172.959 113.297 172.39 112.676 171.452C112.284 170.883 112.088 170.214 112.088 169.511C112.088 168.707 112.088 167.903 112.088 167.1C112.088 166.999 112.088 166.865 112.121 166.765C112.186 166.329 112.447 166.062 112.872 165.961C113.166 165.894 113.492 165.861 113.819 165.861C119.468 165.861 125.15 165.861 130.832 165.861C131.387 165.861 131.811 166.095 132.04 166.597C132.269 167.066 132.236 167.535 131.975 167.97C131.714 168.372 131.354 168.573 130.865 168.573C129.819 168.573 128.775 168.573 127.762 168.573C123.517 168.573 119.24 168.573 114.994 168.573C114.897 168.539 114.831 168.539 114.766 168.539Z" fill="#464747"/>
<path fill-rule="evenodd" clip-rule="evenodd" d="M80.238 160.856C81.4807 160.889 82.4619 161.417 83.181 162.44C85.2081 165.178 87.2352 167.917 89.2624 170.656C89.9494 171.547 89.5245 172.801 88.4453 173.032C87.8569 173.164 87.3333 172.999 86.9411 172.47C85.012 169.864 83.0502 167.257 81.1211 164.651C80.9577 164.42 80.7616 164.254 80.5655 164.056C80.3687 163.859 80.1072 163.859 79.9111 164.056C79.6496 164.353 79.3882 164.651 79.1267 164.948C77.263 167.456 75.3992 169.93 73.5355 172.438C73.0446 173.097 72.1294 173.23 71.5084 172.768C70.8867 172.306 70.6906 171.382 71.1155 170.755C71.4757 170.227 71.8679 169.732 72.2601 169.237C73.9604 166.927 75.628 164.651 77.3283 162.34C78.0801 161.351 79.0613 160.889 80.238 160.856Z" fill="#464747"/>
<path fill-rule="evenodd" clip-rule="evenodd" d="M99.1214 173.541C97.9788 173.508 97.0316 173.011 96.3132 172.052C94.5169 169.605 92.7206 167.191 90.8923 164.745C90.6309 164.381 90.3694 164.05 90.1086 163.686C89.4549 162.761 89.9778 161.537 91.0878 161.372C91.6434 161.273 92.1003 161.438 92.4272 161.901C94.3862 164.546 96.3459 167.191 98.3377 169.837C98.5011 170.035 98.6645 170.201 98.8599 170.366C99.0887 170.564 99.3175 170.564 99.5136 170.333C99.8071 170.002 100.101 169.671 100.362 169.341C102.191 166.894 104.053 164.414 105.881 161.934C106.339 161.339 107.122 161.14 107.775 161.504C108.428 161.868 108.69 162.661 108.428 163.356C108.396 163.455 108.33 163.554 108.265 163.62C106.469 166.067 104.64 168.547 102.844 170.994C102.518 171.424 102.224 171.887 101.865 172.284C101.146 173.111 100.265 173.508 99.1214 173.541Z" fill="#464747"/>
<path fill-rule="evenodd" clip-rule="evenodd" d="M122.475 161.438C125.459 161.438 128.442 161.438 131.426 161.438C131.951 161.438 132.344 161.636 132.639 162.066C133.197 162.892 132.639 164.015 131.656 164.114C131.59 164.114 131.492 164.114 131.393 164.114C125.459 164.114 119.492 164.114 113.557 164.114C113 164.114 112.573 163.916 112.278 163.454C111.753 162.594 112.376 161.438 113.393 161.438C114.934 161.438 116.508 161.438 118.049 161.438C119.492 161.438 120.966 161.438 122.475 161.438Z" fill="#464747"/>
<path fill-rule="evenodd" clip-rule="evenodd" d="M138.482 171.521C138.482 172.471 137.739 173.192 136.802 173.192C135.866 173.192 135.123 172.439 135.156 171.488C135.156 170.538 135.899 169.817 136.835 169.817C137.771 169.85 138.514 170.571 138.482 171.521Z" fill="#464747"/>
<path fill-rule="evenodd" clip-rule="evenodd" d="M48.2923 99.7467C47.9073 100.549 47.2579 100.277 47.2579 100.277C46.3345 100.224 47.0651 100.771 46.4343 99.3724C43.8955 91.6087 35.7978 66.914 32.7083 61.1845C26.1374 48.9517 18.7261 47.278 5.5752 48.9218L5.79389 67.2757C10.4172 68.4565 13.845 62.4015 18.675 75.8638C21.1321 82.6898 22.6386 89.5746 25.0565 96.4324C29.7922 109.912 35.2275 121.116 47.0698 121.495C60.7132 121.946 66.9669 105.829 68.9664 99.0058C71.0813 91.8007 75.8063 74.0686 79.4132 68.8481C87.0036 86.31 93.2961 129.792 117.693 119.629C130.405 114.343 134.277 93.3591 137.82 81.3041L142.119 69.2615C143.191 68.1744 142.573 68.6037 143.67 68.6275C146.852 73.4402 147.964 81.3351 150.018 86.696L168.168 81.1563C164.554 70.6956 161.741 59.0939 154.33 52.0902C148.112 46.2297 137.966 45.0621 130.182 53.2339C124.183 59.5485 122.076 67.9559 119.639 75.9066C118.912 78.2936 114.247 99.0251 110.7 99.1315C103.151 87.9174 99.0425 38.6993 73.0084 49.2049C63.1915 53.1623 59.3261 65.6744 56.9616 72.6482L50.773 93.0525C50.0366 95.4602 48.4545 97.939 48.2721 99.737L48.2923 99.7467Z" fill="#464747"/>
</svg>
