<?xml version="1.0" encoding="UTF-8"?>
<!DOCTYPE svg PUBLIC "-//W3C//DTD SVG 1.1//EN" "http://www.w3.org/Graphics/SVG/1.1/DTD/svg11.dtd">
<!-- Creator: CorelDRAW 2020 (64-Bit) -->
<svg xmlns="http://www.w3.org/2000/svg" xml:space="preserve" width="10.9915in" height="10.9914in" version="1.1" style="shape-rendering:geometricPrecision; text-rendering:geometricPrecision; image-rendering:optimizeQuality; fill-rule:evenodd; clip-rule:evenodd"
viewBox="0 0 3867 3867"
 xmlns:xlink="http://www.w3.org/1999/xlink"
 xmlns:xodm="http://www.corel.com/coreldraw/odm/2003">
 <defs>
  <style type="text/css">
   <![CDATA[
    .fil3 {fill:#FAEA23;fill-rule:nonzero}
    .fil2 {fill:#C4B39D;fill-rule:nonzero}
    .fil1 {fill:#7D776E;fill-rule:nonzero}
    .fil0 {fill:#5D5B52;fill-rule:nonzero}
    .fil4 {fill:#3E77B9;fill-rule:nonzero}
   ]]>
  </style>
 </defs>
 <g id="Layer_x0020_1">
  <metadata id="CorelCorpID_0Corel-Layer"/>
  <path class="fil0" d="M1082 2392c9,0 17,-3 22,-8 6,-5 9,-12 9,-20 0,-9 -3,-15 -9,-20 -6,-5 -13,-8 -22,-8l-46 0 0 56 46 0zm77 113l-51 0 -41 -74 -32 0 0 74 -44 0 0 -207 97 0c21,0 38,6 51,19 13,12 19,29 19,48 0,17 -4,31 -13,41 -9,11 -20,17 -32,20l47 79z"/>
  <path class="fil0" d="M1318 2431l-32 -89 -32 89 65 0zm75 74l-50 0 -13 -35 -89 0 -13 35 -50 0 80 -207 55 0 80 207z"/>
  <polygon class="fil0" points="1416,2505 1461,2505 1461,2298 1416,2298 "/>
  <polygon class="fil0" points="1692,2505 1650,2505 1551,2370 1551,2505 1507,2505 1507,2298 1552,2298 1648,2428 1648,2298 1692,2298 "/>
  <path class="fil0" d="M1840 2467c8,0 15,-2 20,-6 5,-4 7,-10 7,-18 0,-7 -2,-13 -7,-17 -5,-5 -11,-7 -20,-7l-57 0 0 48 57 0zm-2 -86c7,0 13,-2 18,-6 4,-4 7,-10 7,-16 0,-7 -2,-12 -7,-16 -4,-4 -10,-6 -18,-6l-55 0 0 45 55 0zm13 124l-113 0 0 -207 109 0c19,0 34,5 44,15 10,10 16,23 16,37 0,13 -3,23 -10,32 -7,9 -15,14 -25,16 11,2 21,7 28,17 8,10 12,21 12,34 0,16 -5,30 -16,40 -11,11 -25,16 -44,16z"/>
  <path class="fil0" d="M2000 2450c12,13 27,19 46,19 19,0 34,-6 46,-19 12,-13 17,-29 17,-49 0,-20 -6,-36 -17,-49 -12,-13 -27,-19 -46,-19 -19,0 -34,6 -46,19 -12,13 -17,29 -17,49 0,20 6,36 17,49zm46 58c-31,0 -57,-10 -78,-30 -20,-20 -31,-46 -31,-77 0,-31 10,-57 31,-77 20,-20 46,-30 78,-30 32,0 57,10 78,30 20,20 31,46 31,77 0,31 -10,57 -31,77 -20,20 -46,30 -78,30z"/>
  <polygon class="fil0" points="2389,2505 2342,2505 2306,2363 2270,2505 2223,2505 2163,2298 2213,2298 2249,2447 2289,2298 2323,2298 2362,2447 2398,2298 2448,2298 "/>
  <polygon class="fil0" points="1105,2802 1049,2802 969,2594 1019,2594 1077,2754 1134,2594 1185,2594 "/>
  <path class="fil0" d="M1243 2747c12,13 27,19 46,19 19,0 34,-6 46,-19 12,-13 17,-29 17,-49 0,-20 -6,-36 -17,-49 -12,-13 -27,-19 -46,-19 -19,0 -34,6 -46,19 -12,13 -17,29 -17,49 0,20 6,36 17,49zm46 58c-31,0 -57,-10 -78,-30 -20,-20 -31,-46 -31,-77 0,-31 10,-57 31,-77 20,-20 46,-30 78,-30 32,0 57,10 78,30 20,20 31,46 31,77 0,31 -10,57 -31,77 -20,20 -46,30 -78,30z"/>
  <polygon class="fil0" points="1556,2802 1424,2802 1424,2594 1469,2594 1469,2763 1556,2763 "/>
  <path class="fil0" d="M1736 2782c-16,16 -39,23 -70,23 -31,0 -54,-8 -70,-23 -16,-16 -24,-37 -24,-63l0 -125 45 0 0 123c0,15 4,27 13,36 9,9 21,13 36,13 16,0 28,-4 36,-13 8,-9 13,-21 13,-36l0 -123 45 0 0 124c0,27 -8,48 -24,63z"/>
  <polygon class="fil0" points="1983,2802 1941,2802 1842,2666 1842,2802 1798,2802 1798,2594 1843,2594 1939,2724 1939,2594 1983,2594 "/>
  <polygon class="fil0" points="2108,2802 2063,2802 2063,2633 2003,2633 2003,2594 2168,2594 2168,2633 2108,2633 "/>
  <polygon class="fil0" points="2334,2802 2187,2802 2187,2594 2334,2594 2334,2633 2232,2633 2232,2677 2332,2677 2332,2716 2232,2716 2232,2763 2334,2763 "/>
  <polygon class="fil0" points="2515,2802 2368,2802 2368,2594 2515,2594 2515,2633 2413,2633 2413,2677 2513,2677 2513,2716 2413,2716 2413,2763 2515,2763 "/>
  <path class="fil0" d="M2640 2689c9,0 17,-3 22,-8 6,-5 9,-12 9,-20 0,-8 -3,-15 -9,-20 -6,-5 -13,-8 -22,-8l-46 0 0 56 46 0zm77 113l-51 0 -41 -74 -32 0 0 74 -44 0 0 -207 97 0c21,0 38,6 51,19 13,12 19,29 19,48 0,17 -4,31 -13,41 -9,11 -20,17 -32,20l47 79z"/>
  <path class="fil0" d="M2818 2805c-37,0 -66,-11 -88,-33l24 -34c18,19 40,28 66,28 11,0 20,-2 27,-7 6,-4 9,-10 9,-16 0,-6 -3,-10 -9,-14 -6,-4 -13,-6 -22,-8 -9,-2 -18,-4 -29,-7 -10,-3 -20,-7 -29,-11 -9,-4 -16,-10 -22,-19 -6,-8 -9,-19 -9,-31 0,-18 7,-33 21,-45 14,-12 33,-18 57,-18 33,0 60,10 81,29l-25 32c-16,-15 -36,-23 -60,-23 -9,0 -17,2 -22,6 -5,4 -8,9 -8,15 0,5 3,9 9,13 6,3 13,6 22,8 9,2 18,4 29,7 10,3 20,7 29,11 9,4 16,10 22,19 6,9 9,19 9,31 0,20 -7,36 -21,48 -14,12 -35,18 -62,18z"/>
  <path class="fil1" d="M972 3121c-346,-280 -567,-708 -567,-1188 0,-414 165,-789 432,-1064 19,-158 55,-315 106,-466 19,-57 40,-112 63,-167 -600,328 -1006,965 -1006,1697 0,453 156,870 417,1199 185,22 372,18 555,-12z"/>
  <path class="fil2" d="M1933 0c-122,0 -241,11 -357,33 -106,154 -190,321 -250,498 186,-80 391,-125 606,-125 689,0 1272,457 1462,1084 46,36 91,73 134,112 126,114 239,240 337,376 0,-15 1,-30 1,-44 0,-1068 -866,-1933 -1933,-1933z"/>
  <path class="fil0" d="M1933 3461c-152,0 -298,-22 -437,-63 -48,18 -97,35 -146,50 -160,49 -324,80 -490,94 307,205 676,325 1073,325 838,0 1552,-534 1820,-1280 -77,-176 -178,-340 -301,-486 -83,765 -731,1360 -1519,1360z"/>
  <path class="fil3" d="M2452 2119c-494,-171 -988,171 -1482,0 0,-136 0,-271 0,-407 494,171 988,-171 1482,0 0,136 0,271 0,407z"/>
  <path class="fil4" d="M2452 1715c-494,-171 -988,171 -1482,0 0,-136 0,-271 0,-407 494,171 988,-171 1482,0 0,136 0,271 0,407z"/>
 </g>
</svg>
