<svg width="159" height="52" viewBox="0 0 159 52" fill="none" xmlns="http://www.w3.org/2000/svg">
<path d="M15.24 13.3401H3.06V6.20014H17.06L15.29 3.14014H0V33.7401H15.24C17.9452 33.7401 20.5396 32.6655 22.4525 30.7526C24.3654 28.8398 25.44 26.2453 25.44 23.5401C25.44 20.8349 24.3654 18.2405 22.4525 16.3276C20.5396 14.4148 17.9452 13.3401 15.24 13.3401ZM15.24 30.6801H3.06V16.4001H15.24C17.1336 16.4001 18.9497 17.1524 20.2887 18.4914C21.6278 19.8304 22.38 21.6465 22.38 23.5401C22.38 25.4338 21.6278 27.2499 20.2887 28.5889C18.9497 29.9279 17.1336 30.6801 15.24 30.6801Z" fill="black"/>
<path d="M58.6799 6.28021L72.8899 30.7602H48.1599L58.6799 12.4002L56.9099 9.34021L42.9199 33.7402H78.1499L60.4399 3.22021L58.6799 6.28021Z" fill="black"/>
<path d="M36.1299 20.8801L25.9099 3.14014H22.3799L34.3699 23.9301L36.1299 20.8801Z" fill="black"/>
<path d="M49.89 3.14014L32.22 33.7401H35.76L53.42 3.14014H49.89Z" fill="black"/>
<path d="M113.68 20.7898L103.45 3.0498H99.9199L111.91 23.8498L113.68 20.7898Z" fill="black"/>
<path d="M109.77 33.6498H113.3L130.96 3.0498H127.43L109.77 33.6498Z" fill="black"/>
<path d="M137.08 3.06006H134.02V33.6601H137.08V3.06006Z" fill="black"/>
<path d="M154.75 3.0498L137.08 33.6498H140.62L155.22 8.3498V33.6498H158.28V3.0498H154.75Z" fill="black"/>
<path d="M147.68 0H144.62V3.06H147.68V0Z" fill="black"/>
<path d="M76.5901 24.8601L78.3601 27.9001L89.1901 9.27014L101.48 30.6801H79.9601L81.6901 33.6501H106.72L89.1901 3.14014L76.5901 24.8601Z" fill="black"/>
<path d="M43.9342 48V42.76H46.8542C47.2142 42.76 47.5042 42.82 47.7242 42.94C47.9509 43.06 48.1176 43.2167 48.2242 43.41C48.3309 43.6033 48.3842 43.81 48.3842 44.03C48.3842 44.3233 48.3176 44.58 48.1842 44.8C48.0576 45.02 47.8576 45.19 47.5842 45.31C47.8909 45.3967 48.1409 45.5467 48.3342 45.76C48.5276 45.9667 48.6242 46.24 48.6242 46.58C48.6242 46.9067 48.5476 47.1767 48.3942 47.39C48.2409 47.5967 48.0209 47.75 47.7342 47.85C47.4476 47.95 47.1076 48 46.7142 48H43.9342ZM45.2042 47.09H46.6742C46.7942 47.09 46.9042 47.06 47.0042 47C47.1042 46.94 47.1809 46.86 47.2342 46.76C47.2942 46.66 47.3242 46.55 47.3242 46.43C47.3242 46.3033 47.2976 46.1933 47.2442 46.1C47.1909 46 47.1142 45.9233 47.0142 45.87C46.9209 45.81 46.8109 45.78 46.6842 45.78H45.2042V47.09ZM45.2042 44.94H46.5142C46.6342 44.94 46.7409 44.91 46.8342 44.85C46.9276 44.79 46.9976 44.71 47.0442 44.61C47.0976 44.51 47.1242 44.4 47.1242 44.28C47.1242 44.1067 47.0676 43.9633 46.9542 43.85C46.8476 43.73 46.7042 43.67 46.5242 43.67H45.2042V44.94ZM52.7383 48.1C52.3316 48.1 51.9716 48.01 51.6583 47.83C51.3516 47.6433 51.1116 47.3933 50.9383 47.08V50.13H49.5983V42.76H50.7683V43.66C50.9683 43.3533 51.2216 43.1133 51.5283 42.94C51.8349 42.76 52.1849 42.67 52.5783 42.67C52.9316 42.67 53.2549 42.74 53.5483 42.88C53.8483 43.02 54.1083 43.2167 54.3283 43.47C54.5483 43.7167 54.7183 44.0033 54.8383 44.33C54.9649 44.65 55.0283 44.9967 55.0283 45.37C55.0283 45.8767 54.9283 46.3367 54.7283 46.75C54.5349 47.1633 54.2649 47.4933 53.9183 47.74C53.5783 47.98 53.1849 48.1 52.7383 48.1ZM52.2883 46.96C52.4949 46.96 52.6816 46.9167 52.8483 46.83C53.0149 46.7433 53.1583 46.6267 53.2783 46.48C53.4049 46.3267 53.4983 46.1567 53.5583 45.97C53.6249 45.7767 53.6583 45.5767 53.6583 45.37C53.6583 45.15 53.6216 44.9467 53.5483 44.76C53.4816 44.5733 53.3816 44.41 53.2483 44.27C53.1149 44.1233 52.9583 44.01 52.7783 43.93C52.6049 43.85 52.4149 43.81 52.2083 43.81C52.0816 43.81 51.9516 43.8333 51.8183 43.88C51.6916 43.92 51.5683 43.98 51.4483 44.06C51.3283 44.14 51.2216 44.2333 51.1283 44.34C51.0416 44.4467 50.9783 44.5633 50.9383 44.69V45.92C51.0183 46.1133 51.1249 46.29 51.2583 46.45C51.3983 46.61 51.5583 46.7367 51.7383 46.83C51.9183 46.9167 52.1016 46.96 52.2883 46.96ZM55.9362 48V42.76H57.2762V48H55.9362ZM55.9362 42.03V40.7H57.2762V42.03H55.9362ZM58.485 48V42.76H61.405C61.765 42.76 62.055 42.82 62.275 42.94C62.5017 43.06 62.6683 43.2167 62.775 43.41C62.8817 43.6033 62.935 43.81 62.935 44.03C62.935 44.3233 62.8683 44.58 62.735 44.8C62.6083 45.02 62.4083 45.19 62.135 45.31C62.4417 45.3967 62.6917 45.5467 62.885 45.76C63.0783 45.9667 63.175 46.24 63.175 46.58C63.175 46.9067 63.0983 47.1767 62.945 47.39C62.7917 47.5967 62.5717 47.75 62.285 47.85C61.9983 47.95 61.6583 48 61.265 48H58.485ZM59.755 47.09H61.225C61.345 47.09 61.455 47.06 61.555 47C61.655 46.94 61.7317 46.86 61.785 46.76C61.845 46.66 61.875 46.55 61.875 46.43C61.875 46.3033 61.8483 46.1933 61.795 46.1C61.7417 46 61.665 45.9233 61.565 45.87C61.4717 45.81 61.3617 45.78 61.235 45.78H59.755V47.09ZM59.755 44.94H61.065C61.185 44.94 61.2917 44.91 61.385 44.85C61.4783 44.79 61.5483 44.71 61.595 44.61C61.6483 44.51 61.675 44.4 61.675 44.28C61.675 44.1067 61.6183 43.9633 61.505 43.85C61.3983 43.73 61.255 43.67 61.075 43.67H59.755V44.94ZM64.1491 48V42.76H65.4891V44.76H67.6091V42.76H68.9491V48H67.6091V45.88H65.4891V48H64.1491ZM72.5945 48.1C72.1678 48.1 71.7845 48.03 71.4445 47.89C71.1045 47.7433 70.8145 47.5433 70.5745 47.29C70.3411 47.0367 70.1611 46.7467 70.0345 46.42C69.9078 46.0933 69.8445 45.75 69.8445 45.39C69.8445 45.0233 69.9078 44.6767 70.0345 44.35C70.1611 44.0233 70.3411 43.7333 70.5745 43.48C70.8145 43.2267 71.1045 43.03 71.4445 42.89C71.7845 42.7433 72.1678 42.67 72.5945 42.67C73.0211 42.67 73.4011 42.7433 73.7345 42.89C74.0745 43.03 74.3645 43.2267 74.6045 43.48C74.8445 43.7333 75.0245 44.0233 75.1445 44.35C75.2711 44.6767 75.3345 45.0233 75.3345 45.39C75.3345 45.75 75.2711 46.0933 75.1445 46.42C75.0245 46.7467 74.8445 47.0367 74.6045 47.29C74.3711 47.5433 74.0845 47.7433 73.7445 47.89C73.4045 48.03 73.0211 48.1 72.5945 48.1ZM71.2245 45.39C71.2245 45.6967 71.2845 45.97 71.4045 46.21C71.5245 46.4433 71.6878 46.6267 71.8945 46.76C72.1011 46.8933 72.3345 46.96 72.5945 46.96C72.8478 46.96 73.0778 46.8933 73.2845 46.76C73.4911 46.62 73.6545 46.4333 73.7745 46.2C73.9011 45.96 73.9645 45.6867 73.9645 45.38C73.9645 45.08 73.9011 44.81 73.7745 44.57C73.6545 44.33 73.4911 44.1433 73.2845 44.01C73.0778 43.8767 72.8478 43.81 72.5945 43.81C72.3345 43.81 72.1011 43.88 71.8945 44.02C71.6878 44.1533 71.5245 44.34 71.4045 44.58C71.2845 44.8133 71.2245 45.0833 71.2245 45.39ZM76.2389 48V42.76H79.1589C79.5189 42.76 79.8089 42.82 80.0289 42.94C80.2556 43.06 80.4222 43.2167 80.5289 43.41C80.6356 43.6033 80.6889 43.81 80.6889 44.03C80.6889 44.3233 80.6222 44.58 80.4889 44.8C80.3622 45.02 80.1622 45.19 79.8889 45.31C80.1956 45.3967 80.4456 45.5467 80.6389 45.76C80.8322 45.9667 80.9289 46.24 80.9289 46.58C80.9289 46.9067 80.8522 47.1767 80.6989 47.39C80.5456 47.5967 80.3256 47.75 80.0389 47.85C79.7522 47.95 79.4122 48 79.0189 48H76.2389ZM77.5089 47.09H78.9789C79.0989 47.09 79.2089 47.06 79.3089 47C79.4089 46.94 79.4856 46.86 79.5389 46.76C79.5989 46.66 79.6289 46.55 79.6289 46.43C79.6289 46.3033 79.6022 46.1933 79.5489 46.1C79.4956 46 79.4189 45.9233 79.3189 45.87C79.2256 45.81 79.1156 45.78 78.9889 45.78H77.5089V47.09ZM77.5089 44.94H78.8189C78.9389 44.94 79.0456 44.91 79.1389 44.85C79.2322 44.79 79.3022 44.71 79.3489 44.61C79.4022 44.51 79.4289 44.4 79.4289 44.28C79.4289 44.1067 79.3722 43.9633 79.2589 43.85C79.1522 43.73 79.0089 43.67 78.8289 43.67H77.5089V44.94ZM81.543 46.45C81.543 46.11 81.6363 45.8133 81.823 45.56C82.0163 45.3 82.283 45.1 82.623 44.96C82.963 44.82 83.353 44.75 83.793 44.75C84.013 44.75 84.2363 44.7667 84.463 44.8C84.6896 44.8333 84.8863 44.8867 85.053 44.96V44.68C85.053 44.3467 84.953 44.09 84.753 43.91C84.5596 43.73 84.2696 43.64 83.883 43.64C83.5963 43.64 83.323 43.69 83.063 43.79C82.803 43.89 82.5296 44.0367 82.243 44.23L81.813 43.35C82.1596 43.1233 82.513 42.9533 82.873 42.84C83.2396 42.7267 83.623 42.67 84.023 42.67C84.7696 42.67 85.3496 42.8567 85.763 43.23C86.183 43.6033 86.393 44.1367 86.393 44.83V46.5C86.393 46.64 86.4163 46.74 86.463 46.8C86.5163 46.86 86.5996 46.8967 86.713 46.91V48C86.593 48.02 86.483 48.0367 86.383 48.05C86.2896 48.0633 86.2096 48.07 86.143 48.07C85.8763 48.07 85.673 48.01 85.533 47.89C85.3996 47.77 85.3163 47.6233 85.283 47.45L85.253 47.18C85.0263 47.4733 84.743 47.7 84.403 47.86C84.063 48.02 83.7163 48.1 83.363 48.1C83.0163 48.1 82.703 48.03 82.423 47.89C82.1496 47.7433 81.933 47.5467 81.773 47.3C81.6196 47.0467 81.543 46.7633 81.543 46.45ZM84.803 46.72C84.8763 46.64 84.9363 46.56 84.983 46.48C85.0296 46.4 85.053 46.3267 85.053 46.26V45.73C84.893 45.6633 84.7196 45.6133 84.533 45.58C84.3463 45.54 84.1696 45.52 84.003 45.52C83.6563 45.52 83.3696 45.5967 83.143 45.75C82.923 45.8967 82.813 46.0933 82.813 46.34C82.813 46.4733 82.8496 46.6 82.923 46.72C82.9963 46.84 83.103 46.9367 83.243 47.01C83.383 47.0833 83.5496 47.12 83.743 47.12C83.943 47.12 84.1396 47.0833 84.333 47.01C84.5263 46.93 84.683 46.8333 84.803 46.72ZM87.2552 48L89.0952 45.29L87.3852 42.76H88.8752L90.2152 44.75H90.6252V42.76H92.0052V44.75H92.4452L93.7552 42.76H95.2552L93.5452 45.29L95.3952 48H93.8652L92.4452 45.91H92.0052V48H90.6352V45.91H90.2152L88.7752 48H87.2552ZM98.6396 48.1C98.2196 48.1 97.8396 48.03 97.4996 47.89C97.1596 47.7433 96.8696 47.5467 96.6296 47.3C96.3896 47.0467 96.2029 46.76 96.0696 46.44C95.9429 46.1133 95.8796 45.77 95.8796 45.41C95.8796 44.91 95.9896 44.4533 96.2096 44.04C96.4363 43.6267 96.7563 43.2967 97.1696 43.05C97.5896 42.7967 98.0829 42.67 98.6496 42.67C99.2229 42.67 99.7129 42.7967 100.12 43.05C100.526 43.2967 100.836 43.6267 101.05 44.04C101.27 44.4467 101.38 44.8867 101.38 45.36C101.38 45.44 101.376 45.5233 101.37 45.61C101.363 45.69 101.356 45.7567 101.35 45.81H97.2996C97.3263 46.0767 97.4029 46.31 97.5296 46.51C97.6629 46.71 97.8296 46.8633 98.0296 46.97C98.2363 47.07 98.4563 47.12 98.6896 47.12C98.9563 47.12 99.2063 47.0567 99.4396 46.93C99.6796 46.7967 99.8429 46.6233 99.9296 46.41L101.08 46.73C100.953 46.9967 100.77 47.2333 100.53 47.44C100.296 47.6467 100.02 47.81 99.6996 47.93C99.3796 48.0433 99.0263 48.1 98.6396 48.1ZM97.2696 44.96H100.01C99.9829 44.6933 99.9063 44.4633 99.7796 44.27C99.6596 44.07 99.4996 43.9167 99.2996 43.81C99.0996 43.6967 98.8763 43.64 98.6296 43.64C98.3896 43.64 98.1696 43.6967 97.9696 43.81C97.7763 43.9167 97.6163 44.07 97.4896 44.27C97.3696 44.4633 97.2963 44.6933 97.2696 44.96ZM102.196 48V42.76H103.536V44.76H105.656V42.76H106.996V48H105.656V45.88H103.536V48H102.196ZM110.641 48.1C110.215 48.1 109.831 48.03 109.491 47.89C109.151 47.7433 108.861 47.5433 108.621 47.29C108.388 47.0367 108.208 46.7467 108.081 46.42C107.955 46.0933 107.891 45.75 107.891 45.39C107.891 45.0233 107.955 44.6767 108.081 44.35C108.208 44.0233 108.388 43.7333 108.621 43.48C108.861 43.2267 109.151 43.03 109.491 42.89C109.831 42.7433 110.215 42.67 110.641 42.67C111.068 42.67 111.448 42.7433 111.781 42.89C112.121 43.03 112.411 43.2267 112.651 43.48C112.891 43.7333 113.071 44.0233 113.191 44.35C113.318 44.6767 113.381 45.0233 113.381 45.39C113.381 45.75 113.318 46.0933 113.191 46.42C113.071 46.7467 112.891 47.0367 112.651 47.29C112.418 47.5433 112.131 47.7433 111.791 47.89C111.451 48.03 111.068 48.1 110.641 48.1ZM109.271 45.39C109.271 45.6967 109.331 45.97 109.451 46.21C109.571 46.4433 109.735 46.6267 109.941 46.76C110.148 46.8933 110.381 46.96 110.641 46.96C110.895 46.96 111.125 46.8933 111.331 46.76C111.538 46.62 111.701 46.4333 111.821 46.2C111.948 45.96 112.011 45.6867 112.011 45.38C112.011 45.08 111.948 44.81 111.821 44.57C111.701 44.33 111.538 44.1433 111.331 44.01C111.125 43.8767 110.895 43.81 110.641 43.81C110.381 43.81 110.148 43.88 109.941 44.02C109.735 44.1533 109.571 44.34 109.451 44.58C109.331 44.8133 109.271 45.0833 109.271 45.39Z" fill="black"/>
</svg>
