<svg data-name="Слой 1" xmlns="http://www.w3.org/2000/svg" viewBox="0 0 1159.54601 947.27423"><title>Sell&amp;amp;Win_Logo</title><path fill="#ff3838" d="M212.272 0h947.274v947.274H212.272z"/><path d="M389.109 444.3q-17.075-7.024-25.856-18.575a43.32 43.32 0 0 1-9.288-25.102 4.915 4.915 0 0 1 1.628-3.767 5.545 5.545 0 0 1 3.895-1.505h33.386a10.415 10.415 0 0 1 4.893 1.003 16.325 16.325 0 0 1 4.145 3.516 25.17 25.17 0 0 0 10.166 9.914q6.897 3.896 18.45 3.892 13.55 0 20.833-4.142 7.278-4.142 7.28-11.422a11.127 11.127 0 0 0-3.764-8.661q-3.768-3.39-12.05-6.025-8.283-2.636-23.848-5.897-30.375-6.026-45.435-18.326-15.062-12.297-15.06-35.143a46.677 46.677 0 0 1 8.659-27.738q8.658-12.177 24.602-18.955 15.937-6.775 37.026-6.776 22.084 0 38.28 7.655 16.193 7.663 24.852 19.08 8.658 11.423 9.163 22.465a5.542 5.542 0 0 1-1.508 3.892 4.901 4.901 0 0 1-3.765 1.63h-35.144a9.667 9.667 0 0 1-8.534-4.516q-1.505-5.273-7.78-8.913-6.278-3.636-15.564-3.64-10.546 0-16.318 3.767a12.345 12.345 0 0 0-5.773 11.043q0 7.285 7.53 11.422 7.528 4.142 28.114 8.41 23.596 4.273 37.53 10.67 13.931 6.4 20.583 16.566 6.653 10.167 6.655 25.73 0 17.075-9.791 29.621-9.79 12.558-27.11 19.205-17.324 6.65-39.662 6.651-24.353 0-41.42-7.028zm145.218 2.637a6.012 6.012 0 0 1-1.888-4.394V279.626a6.56 6.56 0 0 1 1.758-4.644 5.909 5.909 0 0 1 4.519-1.882h118.488a6.43 6.43 0 0 1 6.526 6.526v24.852a5.902 5.902 0 0 1-1.882 4.52 6.557 6.557 0 0 1-4.644 1.757h-79.325v31.88h73.802a6.43 6.43 0 0 1 6.527 6.527v22.844a6.43 6.43 0 0 1-6.527 6.527H577.88v32.632h81.332a6.43 6.43 0 0 1 6.527 6.528v24.85a5.898 5.898 0 0 1-1.883 4.52 6.542 6.542 0 0 1-4.644 1.757H538.716a6.006 6.006 0 0 1-4.39-1.883zm162.414 0a6.012 6.012 0 0 1-1.887-4.394V279.377a5.9 5.9 0 0 1 1.887-4.52 6.239 6.239 0 0 1 4.39-1.757h35.143a6.02 6.02 0 0 1 6.277 6.276V409.41h75.31a6.43 6.43 0 0 1 6.527 6.527v26.607a5.898 5.898 0 0 1-1.883 4.52 6.55 6.55 0 0 1-4.644 1.757h-116.73a6.006 6.006 0 0 1-4.39-1.883zm151.869 0a6.012 6.012 0 0 1-1.887-4.394V279.377a5.9 5.9 0 0 1 1.888-4.52A6.239 6.239 0 0 1 853 273.1h35.143a6.02 6.02 0 0 1 6.276 6.276V409.41h75.31a6.43 6.43 0 0 1 6.527 6.527v26.607a5.898 5.898 0 0 1-1.883 4.52 6.55 6.55 0 0 1-4.644 1.757H853a6.006 6.006 0 0 1-4.39-1.883zM484.678 683.661a9.54 9.54 0 0 1-3.136-5.897l-26.86-160.658a3.511 3.511 0 0 1-.25-1.508 5.588 5.588 0 0 1 5.269-5.268h32.886q7.278 0 8.034 5.773l15.31 94.889 17.322-54.977q2.005-6.779 8.284-6.776h18.83q6.265 0 8.28 6.776l17.322 54.722 15.564-94.634a6.72 6.72 0 0 1 2.262-4.395c1.165-.915 3.011-1.378 5.523-1.378h32.881a4.907 4.907 0 0 1 3.765 1.628 5.255 5.255 0 0 1 1.508 3.64v1.508l-26.86 160.658a9.318 9.318 0 0 1-3.265 5.897 9.984 9.984 0 0 1-6.776 2.387h-25.356a9.09 9.09 0 0 1-6.272-2.008 9.802 9.802 0 0 1-3.016-4.519l-24.852-69.533-24.848 69.533a12.029 12.029 0 0 1-3.265 4.52 9.111 9.111 0 0 1-6.277 2.007h-25.101a9.868 9.868 0 0 1-6.906-2.387zm191.037.504a6.012 6.012 0 0 1-1.888-4.394V516.602a5.893 5.893 0 0 1 1.888-4.514 6.229 6.229 0 0 1 4.39-1.758H716a6.02 6.02 0 0 1 6.277 6.272v163.169a6.24 6.24 0 0 1-1.758 4.394 5.909 5.909 0 0 1-4.519 1.883h-35.897a6.015 6.015 0 0 1-4.39-1.883zm83.839 0a6.012 6.012 0 0 1-1.887-4.394V516.857a6.552 6.552 0 0 1 1.757-4.644 5.892 5.892 0 0 1 4.52-1.883h28.367a9.19 9.19 0 0 1 8.534 4.769l59.241 93.631v-91.873a6.552 6.552 0 0 1 1.758-4.644 5.892 5.892 0 0 1 4.519-1.883h31.882a5.9 5.9 0 0 1 4.52 1.883 6.572 6.572 0 0 1 1.757 4.644V679.52a6.572 6.572 0 0 1-1.758 4.644 5.915 5.915 0 0 1-4.519 1.883h-28.367a9.177 9.177 0 0 1-8.534-4.77l-58.992-89.87v88.363a5.902 5.902 0 0 1-1.882 4.519 6.532 6.532 0 0 1-4.644 1.758h-31.883a6.015 6.015 0 0 1-4.39-1.883zM40.398 659.96Q-.01 628.289 0 572.487q0-36.03 20.056-62.776 20.05-26.725 58.413-48.242-22.097-23.236-31.679-43.59a97.132 97.132 0 0 1-9.588-41.85A96.048 96.048 0 0 1 51.73 324.59q14.521-23.54 43.594-37.488 29.057-13.953 70.329-13.95 37.777 0 65.388 13.95 27.6 13.945 42.142 36.906a92.25 92.25 0 0 1 14.528 50.277q0 33.13-20.342 57.836-20.35 24.706-59.866 46.785l66.258 66.842q8.721-14.522 15.694-28.187 6.98-13.655 13.95-36.328 2.318-8.131 12.207-8.136h62.192a10.915 10.915 0 0 1 11.041 11.04q-.583 19.767-19.177 54.349a398.604 398.604 0 0 1-40.69 61.9l65.098 66.842q4.066 4.073 4.07 8.136a9.757 9.757 0 0 1-3.196 7.558 11.231 11.231 0 0 1-7.849 2.905h-83.113q-9.304 0-15.111-5.815l-24.995-23.83a157.522 157.522 0 0 1-51.73 27.031q-27.898 8.416-62.193 8.428-69.172 0-109.561-31.68zm167.105-64.805l-74.982-74.4q-36.043 19.184-36.036 47.082 0 21.508 15.985 34.58 15.979 13.078 37.489 13.08 33.705 0 57.544-20.342zm-18.02-192.68q11.62-10.746 11.628-25.286 0-14.521-10.176-23.83-10.171-9.29-25.86-9.297a35.713 35.713 0 0 0-24.996 9.589 31.34 31.34 0 0 0-10.462 24.12q0 9.894 6.105 20.635 6.099 10.76 20.634 25.865 21.494-11.032 33.127-21.795zm753.69 250.644h33.155v33.155h-33.155z" fill="#fff"/></svg>