<?xml version="1.0" encoding="UTF-8"?>
<!DOCTYPE svg PUBLIC "-//W3C//DTD SVG 1.1//EN" "http://www.w3.org/Graphics/SVG/1.1/DTD/svg11.dtd">
<!-- Creator: CorelDRAW 2020 (64-Bit) -->
<svg xmlns="http://www.w3.org/2000/svg" xml:space="preserve" width="8.96433in" height="2.06053in" version="1.1" style="shape-rendering:geometricPrecision; text-rendering:geometricPrecision; image-rendering:optimizeQuality; fill-rule:evenodd; clip-rule:evenodd"
viewBox="0 0 7223 1660"
 xmlns:xlink="http://www.w3.org/1999/xlink"
 xmlns:xodm="http://www.corel.com/coreldraw/odm/2003">
 <defs>
  <style type="text/css">
   <![CDATA[
    .fil0 {fill:#010101}
    .fil1 {fill:#6B6B6B}
   ]]>
  </style>
 </defs>
 <g id="Layer_x0020_1">
  <metadata id="CorelCorpID_0Corel-Layer"/>
  <g id="_1636476416368">
   <path class="fil0" d="M4401 615c225,-37 320,115 322,328 2,213 3,433 -197,473 -105,21 -200,-4 -262,-58 -67,-59 -68,-154 -68,-269 0,-232 -37,-434 204,-474zm322 -48c-25,-63 -145,-149 -232,-174 -122,-35 -257,-11 -350,44 -424,249 -332,1349 335,1207 129,-27 179,-103 246,-173l2 154 299 -2 -1 -1616 -299 -6 -1 567z"/>
   <path class="fil0" d="M1877 881c-2,-168 75,-270 240,-270 173,0 236,113 238,270l-478 0zm760 380l-6 -28 -281 4c-24,131 -125,209 -284,182 -158,-27 -194,-135 -189,-308l782 1c0,-195 5,-332 -84,-482 -226,-381 -889,-362 -996,223 -122,668 415,944 820,742 98,-49 243,-187 238,-334z"/>
   <path class="fil0" d="M5431 785c20,-115 132,-190 274,-172 70,9 115,45 150,85 42,48 48,99 46,177 -18,15 5,6 -24,12l-454 -2c-15,-44 -12,-65 8,-99zm763 445l-291 -3c-44,121 -96,225 -290,192 -158,-27 -196,-131 -190,-303l784 -4c0,-191 1,-344 -89,-488 -241,-384 -902,-345 -997,256 -58,368 103,684 387,757 328,85 676,-108 686,-407z"/>
   <path class="fil0" d="M3049 570l-7 -160 -296 -3 -2 1218 300 0c-2,-202 0,-403 0,-604 0,-203 23,-376 226,-397 256,-26 236,179 236,386 0,205 0,410 0,615l298 -1c-5,-249 37,-865 -47,-1045 -61,-131 -166,-202 -352,-201 -199,1 -273,85 -355,192z"/>
   <path class="fil0" d="M841 1626l2 -228 -297 -3c-21,-57 -8,-541 -9,-676 -1,-110 3,-66 13,-82l296 0 2 -226 -303 -4 0 -400 -299 -7 0 404 -239 4c-19,336 -14,198 239,234l0 984 595 0z"/>
   <path class="fil0" d="M6290 1625l300 -2 -1 -982 382 -2 -1 -229c-200,-9 -467,-2 -680,-3l-1 1218z"/>
   <path class="fil0" d="M919 1625l300 -2 -1 -982 382 -2 -1 -229c-200,-9 -467,-2 -680,-3l-1 1218z"/>
   <path class="fil1" d="M841 1626c20,-14 11,1 14,-44l-4 -189 -301 -6 1 -750c-10,16 -15,-27 -13,82 2,135 -12,619 9,676l297 3 -2 228z"/>
   <path class="fil0" d="M7061 1375c143,-48 203,173 64,212 -140,39 -209,-164 -64,-212zm-27 -5c-38,19 -42,7 -62,64 -41,116 68,213 175,165 153,-69 53,-311 -113,-229z"/>
   <path class="fil0" d="M7077 1479c-2,-24 -11,-42 19,-40 24,1 17,11 22,34l-41 6zm-25 67c31,-12 21,10 23,-49 67,35 -1,41 65,46 -39,-72 -8,-34 -1,-78 10,-56 -43,-46 -87,-44l0 124z"/>
   <path class="fil1" d="M5901 875l-475 1 5 -90c-21,34 -23,55 -8,99l454 2c29,-6 6,3 24,-12z"/>
   <path class="fil1" d="M2638 1261c10,-9 11,16 12,-33l-265 -6c-45,7 -17,0 -34,15l281 -4 6 28z"/>
  </g>
 </g>
</svg>
