<svg width="114" height="13" viewBox="0 0 114 13" fill="none" xmlns="http://www.w3.org/2000/svg">
<path fill-rule="evenodd" clip-rule="evenodd" d="M20.9535 6.20823H21.315C21.4355 6.02765 21.4269 6.32862 21.4871 5.77829L21.4958 1.65941C21.8831 1.7196 25.8254 5.27095 26.5657 5.89007C26.9272 6.19103 26.9875 6.26842 27.6072 6.19963L27.6417 0.833912C28.2528 0.919902 28.1926 1.06608 28.6402 1.41864L31.4118 3.49957C31.4979 3.97251 31.4807 4.33367 31.4807 4.81521C31.4807 6.15664 31.3258 6.29422 32.1435 6.20823L32.2038 3.61996C33.0559 2.82886 34.0716 2.16674 34.9496 1.48743C35.1562 1.32405 35.2595 1.24666 35.423 1.11768C35.7415 0.868308 35.6813 0.988693 35.819 0.61894C34.1061 0.575945 32.5567 2.97504 31.8336 2.94064C31.2483 2.69128 30.3187 1.85718 29.7247 1.42724C28.5627 0.575945 28.9156 0.532951 26.9444 0.636138L26.9272 5.17636C26.4968 5.02158 23.3722 2.29573 22.5975 1.61641C21.9347 1.04029 21.7798 0.601742 20.8071 0.627539L20.7727 5.89867C20.8502 6.18243 20.833 6.05345 20.9449 6.20823H20.9535Z" fill="#131343"/>
<path fill-rule="evenodd" clip-rule="evenodd" d="M10.0303 3.64606L10.0389 6.16556L10.7706 6.17416V3.57727C11.5797 2.97535 12.3027 2.43361 13.1205 1.76289C13.7144 1.28135 13.6714 1.20396 14.6096 1.21256C15.3154 1.22116 16.0385 1.17816 16.7443 1.23836C16.8906 2.42501 16.5291 5.34866 16.8734 6.13976C17.1661 6.26875 17.037 6.24295 17.4502 6.19996C17.674 4.86712 17.2608 1.59951 17.6567 1.26415C17.8891 1.06638 19.2492 1.16956 19.6279 1.17816C20.6178 1.18676 20.2304 1.12657 20.4284 0.980387C20.2993 0.464449 20.7383 0.593433 18.9135 0.593433L13.4906 0.610631C13.1205 1.00618 10.805 2.76897 10.4263 2.92375C9.89257 2.75177 9.06623 1.97787 8.57559 1.62531C7.18114 0.602032 7.51684 0.550438 6.34619 0.61923C6.51835 0.988985 6.87126 1.16956 7.22418 1.42753L10.0217 3.63747L10.0303 3.64606Z" fill="#131343"/>
<path fill-rule="evenodd" clip-rule="evenodd" d="M73.0129 1.28973C73.6843 1.14354 75.3111 1.21234 76.0686 1.22953C76.9466 1.24673 78.2292 1.31552 78.0914 2.3044C77.9193 3.46525 74.2524 3.34487 73.0043 3.19009L73.0129 1.28973ZM72.3587 6.15671L72.9871 6.19111V3.91239C73.6068 3.75761 75.9567 3.80061 76.6626 3.878C78.4099 4.04998 77.7988 4.79808 78.0226 6.2083L78.6595 6.2341C79.0297 3.98119 78.2378 3.91239 77.9623 3.50824C78.3497 3.0611 78.9522 2.80313 78.7801 1.86585C78.6509 1.17794 77.9193 0.825385 77.2565 0.722198C76.2494 0.567417 73.3228 0.515824 72.2898 0.670604C72.2296 1.56489 72.1349 5.56339 72.3587 6.15671Z" fill="#131343"/>
<path fill-rule="evenodd" clip-rule="evenodd" d="M100.747 1.28099C101.401 1.14341 102.83 1.2122 103.562 1.2208C104.612 1.2294 105.215 1.2208 105.774 1.85712C105.869 2.98357 104.93 3.17275 103.923 3.20714C103.02 3.24154 101.642 3.27593 100.73 3.18994L100.738 1.28099H100.747ZM100.093 6.23395H100.678C100.799 5.51164 100.652 4.84953 100.721 4.21321C100.782 3.66288 100.893 3.84346 102.374 3.84346C105.972 3.84346 105.671 3.87785 105.731 6.20815L106.325 6.21675C106.377 6.06197 106.402 6.11356 106.437 5.88999C106.686 4.06703 105.929 3.82626 105.705 3.4995L105.826 3.36192C107.298 2.03769 106.308 0.962832 105.128 0.74786C103.854 0.507092 101.479 0.575883 100.076 0.627476C99.9724 1.46157 99.938 5.52024 100.102 6.23395H100.093Z" fill="#131343"/>
<path fill-rule="evenodd" clip-rule="evenodd" d="M113.839 5.21971V4.41141C113.426 3.91267 113.615 3.80089 112.781 3.49992C111.059 2.8808 107.607 3.10437 108.072 1.82313C108.58 1.10941 109.811 1.10081 110.861 1.14381C112.092 1.1868 112.686 1.37598 112.97 2.45945L113.65 2.50244C113.813 -0.0600443 108.184 0.180726 107.427 1.48777C106.626 2.8722 108.666 3.38814 109.63 3.54292C110.741 3.7235 112.824 3.7149 113.116 4.68658C112.91 5.69266 111.291 5.71845 110.147 5.67546C108.864 5.62387 107.788 5.45189 107.762 4.08465C107.616 4.07605 107.547 4.04166 107.392 4.05886C107.125 4.09325 107.151 4.12765 107.099 4.14485C106.747 5.62387 108.511 6.1398 109.785 6.23439C110.758 6.31178 112.264 6.27739 113.09 5.79584L113.857 5.19392L113.839 5.21971Z" fill="#131343"/>
<path fill-rule="evenodd" clip-rule="evenodd" d="M49.6947 1.47037C50.237 0.91144 51.5712 0.851248 52.1307 1.47037C52.234 1.72833 51.3646 3.41371 49.6947 1.9519V1.47037ZM51.5454 0.395508H50.3575C50.0046 0.627677 49.2127 0.68787 48.9889 1.2296C48.7995 2.49363 49.3418 2.32166 49.841 2.89778C49.2385 3.5513 47.6547 3.5169 47.9818 5.16788C48.3605 6.19115 50.7965 6.44912 51.8811 6.07936C52.4233 5.89879 52.6471 5.62362 53.0775 5.55483L53.1292 6.22555L53.8092 6.25134L53.8178 3.66308L53.1464 3.65448C52.8537 4.81533 52.6127 5.25387 51.4765 5.56343C49.8668 6.00198 46.6992 4.90132 50.1681 3.5341C51.4335 3.03536 51.2699 3.77487 52.2254 3.71467C52.2512 2.85479 52.1135 3.43091 51.7864 2.89778C52.3803 2.39045 52.9915 2.29586 52.8365 1.2296C52.6299 0.696468 51.9155 0.662073 51.5454 0.395508Z" fill="#780503"/>
<path fill-rule="evenodd" clip-rule="evenodd" d="M1.0266 4.72083C0.725333 4.45426 1.01799 4.69503 0.828626 4.41987C0.630649 4.1361 0.845841 4.29088 0.510141 4.1361C0.441279 4.25649 0.131403 3.93833 0.510141 5.15937C0.888879 6.64698 6.2859 6.65557 6.91426 5.24536C8.00744 2.82048 2.92029 3.46539 1.22458 2.33894C1.21597 1.67683 1.40534 1.47905 1.99066 1.31567C2.79979 1.0835 4.61601 1.05771 5.38209 1.39306C5.99324 1.65963 5.96742 1.94339 6.174 2.50232L6.80236 2.51952C6.98312 0.945922 5.10665 0.584769 3.73802 0.57617C2.26611 0.567571 0.217479 0.65356 0.535964 2.43353C1.50863 4.07591 4.79677 3.23322 6.25147 4.43706L6.2859 4.99599C5.15829 6.06225 1.55167 5.96766 1.0266 4.72083Z" fill="#131343"/>
<path fill-rule="evenodd" clip-rule="evenodd" d="M85.9072 6.19134L86.6303 6.20854L86.6475 1.75428C87.1295 1.85747 86.8455 1.72849 87.1812 1.96926C87.7579 2.37341 91.7949 6.11395 92.0962 6.21714L92.7762 6.22574L92.8192 0.653618L92.122 0.64502L92.0962 5.15947C91.64 5.08208 88.369 2.13264 87.6976 1.57371C87.0779 1.04917 86.8196 0.490238 85.9417 0.688014L85.9244 6.19994L85.9072 6.19134Z" fill="#131343"/>
<path fill-rule="evenodd" clip-rule="evenodd" d="M36.0255 6.20838L36.6969 6.22557L36.7572 4.23922C37.2478 3.96405 37.8331 3.5513 38.4787 3.44811C38.7972 3.80927 41.2246 5.33128 41.9476 5.79563C42.5588 6.19118 42.5416 6.28577 43.5228 6.20838C43.2732 5.57205 39.4944 3.78347 39.1071 2.98377L42.8687 1.02321C43.4798 0.722246 43.2044 0.859829 43.3507 0.593262C41.8443 0.601861 41.6033 0.954418 39.8818 1.86591C39.3051 2.17547 37.1617 3.38792 36.783 3.42232L36.7314 0.627658L35.9739 0.593262L36.0255 6.19118V6.20838Z" fill="#131343"/>
<path fill-rule="evenodd" clip-rule="evenodd" d="M59.542 1.83165C59.542 1.02336 59.6797 1.21253 60.5233 1.22113C61.6939 1.23833 63.7254 1.04915 64.3537 1.70267C65.0854 2.46797 64.0783 3.08708 63.5016 3.19887C62.5805 3.37945 60.618 3.29346 59.5592 3.24186L59.542 1.82305V1.83165ZM58.8104 6.16548L59.3268 6.21707C59.7228 5.48617 59.3957 5.18521 59.5334 3.95557C60.7213 3.65461 65.7482 4.58329 65.292 1.96063C65.1198 0.971763 63.8631 0.653605 62.7957 0.61921C61.6423 0.584814 59.9724 0.54182 58.8448 0.653605L58.8018 6.17408L58.8104 6.16548Z" fill="#131343"/>
<path fill-rule="evenodd" clip-rule="evenodd" d="M99.5506 6.12244L99.4989 5.6667L94.2482 5.6409L94.2138 3.63735L97.6999 3.61155C98.7329 3.62015 98.9136 3.71474 98.8448 3.07841L94.2482 3.01822L94.2741 1.39302C94.4118 0.928675 98.423 1.28983 99.4559 1.19524V0.756696C98.6898 0.63631 94.1277 0.576118 93.6629 0.791091C93.5252 1.08346 93.5166 5.6323 93.6371 6.13104L99.5506 6.12244Z" fill="#131343"/>
<path fill-rule="evenodd" clip-rule="evenodd" d="M68.055 1.59941C68.2443 1.77138 69.4925 3.56854 69.5355 3.91249L66.5314 3.94688C66.5314 3.52554 67.6762 1.79718 68.0464 1.59941H68.055ZM64.0696 6.17398L64.8271 6.24277L65.9805 4.5488L69.9659 4.5574C70.4651 5.07333 70.7492 5.74404 71.1537 6.23417L71.8338 6.22557C71.7907 5.89022 68.6919 1.15227 68.3304 0.627739L67.8226 0.619141C67.3749 0.997489 66.4023 2.65706 65.9116 3.37936L64.0782 6.17398H64.0696Z" fill="#131343"/>
<path fill-rule="evenodd" clip-rule="evenodd" d="M59.542 1.83162L59.5592 3.25041C60.618 3.29341 62.5805 3.38799 63.5015 3.20742C64.0869 3.08704 65.0854 2.47653 64.3537 1.71124C63.7253 1.05774 61.6939 1.24691 60.5233 1.22971C59.6797 1.22111 59.542 1.02334 59.542 1.84022V1.83162Z" fill="#FCFEFE"/>
<path fill-rule="evenodd" clip-rule="evenodd" d="M72.9958 3.18999C74.2354 3.34477 77.9109 3.46515 78.083 2.30431C78.2293 1.31544 76.9382 1.24665 76.0602 1.22945C75.3027 1.21226 73.6759 1.14347 73.0045 1.28965L72.9958 3.18999Z" fill="#FCFEFE"/>
<path fill-rule="evenodd" clip-rule="evenodd" d="M100.73 3.19012C101.634 3.28471 103.019 3.24172 103.923 3.20732C104.93 3.17293 105.869 2.98375 105.774 1.8573C105.214 1.22099 104.612 1.23819 103.562 1.22099C102.83 1.21239 101.401 1.135 100.747 1.28118L100.738 3.19012H100.73Z" fill="#FCFEFE"/>
<path fill-rule="evenodd" clip-rule="evenodd" d="M78.8921 1.15198L81.7843 1.22937L81.8187 5.5288C81.8101 6.2597 81.7585 6.2425 82.4987 6.2167L82.5504 1.29816L85.4512 1.17778L85.4856 0.636054C84.7454 0.541466 79.4172 0.532867 78.8921 0.670449L78.9007 1.13479L78.8921 1.15198Z" fill="#131343"/>
<path fill-rule="evenodd" clip-rule="evenodd" d="M68.055 1.59912C67.6763 1.79689 66.54 3.52525 66.54 3.94659L69.5441 3.9122C69.5011 3.56825 68.253 1.7711 68.0636 1.59912H68.055Z" fill="#FCFEFE"/>
<path fill-rule="evenodd" clip-rule="evenodd" d="M22.1587 10.525C20.5749 11.2043 22.3223 12.606 23.6995 11.9696C25.0423 11.3505 23.7425 9.84568 22.1587 10.525Z" fill="#FCFEFE"/>
<path fill-rule="evenodd" clip-rule="evenodd" d="M99.5506 6.12224L93.6371 6.13084C93.5166 5.6321 93.5252 1.08326 93.6629 0.790892C94.1277 0.575918 98.6984 0.64471 99.4559 0.756496C99.3268 0.403939 99.146 0.550121 98.0614 0.55872C96.7444 0.55872 93.5424 0.266356 93.4219 0.88548L93.4563 6.19963C94.0416 6.50059 97.6396 6.35441 98.7759 6.36301C99.7485 6.37161 99.4042 6.27702 99.5419 6.12224H99.5506Z" fill="#8C8BA3"/>
<path fill-rule="evenodd" clip-rule="evenodd" d="M49.6946 1.47038V1.95191C51.3731 3.41372 52.2339 1.73694 52.1306 1.47038C51.5625 0.851256 50.2283 0.911449 49.6946 1.47038Z" fill="#FCFEFE"/>
<path fill-rule="evenodd" clip-rule="evenodd" d="M110.491 12.3479C111.016 12.0642 110.792 11.8492 111.326 11.3849C111.791 11.8836 111.619 11.9094 112.04 12.3049C112.522 12.133 113.469 10.525 113.461 10.095C112.953 10.2842 112.531 11.3677 112.161 11.8492C111.558 11.5052 111.464 10.3788 110.732 10.0864C110.766 10.7055 111.472 11.0409 110.482 11.8492C110.035 11.4021 109.647 10.2068 109.096 10.1208C109.122 10.4648 109.51 10.9635 109.682 11.2301C109.974 11.6944 110.121 12.0814 110.491 12.3393V12.3479Z" fill="#3C3C55"/>
<path fill-rule="evenodd" clip-rule="evenodd" d="M57.4243 10.7918C57.9494 11.6516 59.2406 11.0755 59.6796 11.7462C59.5849 11.9182 59.6451 12.2106 58.4831 12.116C57.8547 12.0644 57.8633 11.901 57.6912 11.729C57.4416 11.4797 57.674 11.6516 57.3727 11.4883C57.3038 12.9759 59.8689 12.3309 60.0153 11.987L60.0239 11.5227C59.1545 10.7144 58.2679 11.4023 57.76 10.68C58.156 10.164 59.2147 10.3618 59.4644 10.5338C59.6968 10.6972 59.4644 10.723 59.9636 10.8605C59.757 9.7255 57.5276 9.75129 57.4243 10.7918Z" fill="#3C3C55"/>
<path fill-rule="evenodd" clip-rule="evenodd" d="M22.1586 10.5252C23.7424 9.84585 25.0421 11.342 23.6993 11.9698C22.3307 12.6061 20.5747 11.2045 22.1586 10.5252ZM24.5085 10.7745C23.5616 9.60508 20.7641 9.95763 21.2978 11.6172C21.5216 12.3223 22.5373 12.4599 23.3464 12.3567C24.3363 12.2363 24.6634 11.815 24.5085 10.7745Z" fill="#3C3C55"/>
<path fill-rule="evenodd" clip-rule="evenodd" d="M38.5994 11.8149C37.7989 11.4881 37.162 10.3187 36.1721 10.1123C36.1462 10.5079 36.1549 10.869 36.1549 11.2646C36.1462 11.8923 36.0602 12.0299 36.37 12.3394C36.6197 11.9439 36.4906 11.2044 36.5164 10.6798C36.809 10.74 37.5493 11.3935 37.6784 11.5139L38.5134 12.2534C39.0815 12.4942 38.8319 12.262 38.9007 12.2276C39.0126 11.8751 39.0643 10.4735 38.8835 10.1295C38.3326 10.2843 38.7802 10.5766 38.5994 11.8235V11.8149Z" fill="#3C3C55"/>
<path fill-rule="evenodd" clip-rule="evenodd" d="M29.4494 11.0323C29.4149 10.9721 29.2084 11.0839 29.4236 10.4046C30.2413 10.3014 31.1365 10.2068 31.3 10.7829C30.9988 11.1441 29.9228 11.2559 29.4494 11.0237V11.0323ZM31.059 11.4966C31.257 11.6772 31.1795 11.5826 31.2484 11.789C31.257 11.8234 31.2742 11.9524 31.2914 11.9868C31.3861 12.2361 31.3689 12.1673 31.4722 12.2963C31.5238 12.2189 31.7132 12.3565 31.6271 11.746C31.5927 11.4966 31.4894 11.445 31.3861 11.2645C31.6271 10.8947 31.6702 10.9893 31.6271 10.3874L31.2226 10.2068L29.0706 10.1294L28.9932 11.746C28.9932 11.7804 29.0104 11.9696 29.0104 11.9782C29.0878 12.2705 29.0878 12.1329 29.1911 12.2533L29.303 11.4106C29.9056 11.2817 30.5598 11.3074 31.0504 11.4794L31.059 11.4966Z" fill="#3C3C55"/>
<path fill-rule="evenodd" clip-rule="evenodd" d="M43.5402 12.3568L45.8557 12.2192C45.8299 12.202 45.7868 12.1418 45.7696 12.1676L45.4597 12.0902C45.3306 12.0816 45.0035 12.0988 44.8572 12.0988C44.4699 12.0988 44.2116 12.1246 43.8415 12.03C43.7296 10.5768 44.8228 11.7806 45.6061 11.1357C45.081 10.9121 44.4699 11.1615 43.8415 10.9551L43.8243 10.4392C44.4354 10.2586 45.3823 10.379 45.9762 10.25C45.5458 9.92327 44.2547 10.0694 43.5833 10.078C43.4025 10.7058 43.4369 11.6946 43.5488 12.3396L43.5402 12.3568Z" fill="#3C3C55"/>
<path fill-rule="evenodd" clip-rule="evenodd" d="M73.8995 11.3762C74.0373 11.0753 74.2008 10.7399 74.5279 10.5937L75.0013 11.402L73.8995 11.3762ZM72.9527 12.3565C73.3831 12.2361 73.4175 12.0985 73.6155 11.6944L75.2251 11.7202C75.5694 12.1415 75.3715 12.1329 75.8535 12.3565C75.8449 11.9179 75.2768 11.1011 74.9841 10.6797L74.5021 10.1294C74.0717 10.2928 74.0717 10.4218 73.6241 11.1183C73.4261 11.4278 73.0302 11.875 72.9441 12.3651L72.9527 12.3565Z" fill="#3C3C55"/>
<path fill-rule="evenodd" clip-rule="evenodd" d="M103.476 10.5682L103.958 11.3937L102.865 11.3593L103.476 10.5682ZM101.944 12.2966C102.486 12.1504 102.348 12.1676 102.572 11.7291C105.361 11.6087 103.76 12.0386 104.887 12.3568C104.827 11.9096 103.872 10.3619 103.441 10.1211C103.088 10.3017 103.39 10.0695 103.183 10.2759L101.944 12.2966Z" fill="#3C3C55"/>
<path fill-rule="evenodd" clip-rule="evenodd" d="M1.52583 11.4019C1.63773 11.0494 1.79266 10.7914 2.0595 10.5936C2.33495 10.8 2.47267 11.0494 2.59318 11.4019H1.51722H1.52583ZM3.42812 12.4596H3.54863C3.49698 11.9179 2.41242 10.2841 2.0595 10.1035C1.73241 10.3185 0.69949 11.8061 0.561768 12.2876C1.0438 12.1586 1.00937 12.0726 1.20734 11.7287L2.92027 11.7201C2.99774 11.8835 3.00635 11.9523 3.12685 12.107C3.14407 12.1242 3.16989 12.15 3.18711 12.1758C3.20432 12.193 3.23015 12.2188 3.24736 12.2446C3.26458 12.2618 3.2904 12.2962 3.30761 12.3134L3.42812 12.4596Z" fill="#3C3C55"/>
<path fill-rule="evenodd" clip-rule="evenodd" d="M51.5023 12.4599H51.6228C51.7519 12.1332 51.7433 11.6774 51.7606 11.2131C52.1995 11.0497 52.0876 11.0153 52.4664 10.7401C52.7935 10.4994 52.9742 10.508 53.1034 10.0952C52.475 10.1812 52.1651 10.7487 51.5626 10.9895C51.1064 10.7057 50.6157 10.1468 50.0476 10.1124C50.237 10.5338 51.0461 10.9465 51.4076 11.3851L51.5109 12.4599H51.5023Z" fill="#3C3C55"/>
<path fill-rule="evenodd" clip-rule="evenodd" d="M80.0542 10.1895C80.2177 10.5077 80.6998 10.3357 81.2076 10.4303C81.199 10.9634 81.0871 11.8233 81.3281 12.2791C81.8016 11.7717 81.3884 11.4278 81.5692 10.4389C82.1028 10.3271 82.4213 10.5077 82.6537 10.1895C82.2836 10.0003 80.3555 10.0261 80.0542 10.1895Z" fill="#3C3C55"/>
<path fill-rule="evenodd" clip-rule="evenodd" d="M29.4492 11.0321C29.914 11.2643 30.9986 11.1439 31.2999 10.7914C31.1363 10.2153 30.2411 10.3098 29.4234 10.413C29.2168 11.0923 29.4234 10.9805 29.4492 11.0407V11.0321Z" fill="#FCFEFE"/>
<path fill-rule="evenodd" clip-rule="evenodd" d="M95.6082 12.288C95.8578 12.3654 97.3297 12.5116 97.7429 12.2192C97.2437 11.9526 96.951 12.1848 95.9353 12.0644C95.875 11.5055 96.0386 10.5682 95.7976 10.1211C95.3844 10.3791 95.5479 11.7721 95.6168 12.288H95.6082Z" fill="#3C3C55"/>
<path fill-rule="evenodd" clip-rule="evenodd" d="M8.89418 12.4596H9.06634L9.1438 12.1844C8.44658 12.322 9.29874 11.4707 8.78228 10.3786L7.76657 10.2926C8.26582 10.0089 9.92711 10.1121 10.1767 10.2754C9.89267 10.3184 9.79799 10.284 9.5828 10.3098C8.89418 10.3872 9.33317 10.2496 9.1438 10.5248C9.75495 10.3356 10.039 10.6108 10.3231 10.1981C9.98736 9.94009 8.10227 9.87129 7.60303 10.1981C7.81822 10.4732 7.43087 10.3614 8.03341 10.4302C8.24 10.456 8.4724 10.4302 8.74785 10.4646C8.77367 11.1353 8.6876 11.9436 8.90279 12.4596H8.89418Z" fill="#8C8BA3"/>
<path fill-rule="evenodd" clip-rule="evenodd" d="M15.6855 12.3221L15.8491 12.2362L15.8663 10.439C16.0557 10.224 15.8319 10.3616 16.159 10.2928C16.202 10.2842 16.3483 10.2842 16.4 10.2842C16.5291 10.2756 16.7529 10.3014 16.9165 10.2928C16.598 10.052 16.3742 10.1466 15.6942 10.1294C15.2638 10.1208 14.7989 10.095 14.5149 10.2756L15.479 10.3702C15.7372 11.0323 15.4101 11.617 15.7028 12.3135L15.6855 12.3221Z" fill="#3C3C55"/>
<path fill-rule="evenodd" clip-rule="evenodd" d="M29.019 12.4596H29.3117L29.4236 11.4536L31.059 11.4966C30.5684 11.3246 29.9056 11.2988 29.3117 11.4278L29.1998 12.2705C29.0965 12.1501 29.0965 12.2791 29.019 11.9953C29.019 11.9867 29.0018 11.7975 29.0018 11.7631L29.0793 10.1465L31.2312 10.2239C30.8783 9.81116 29.5355 9.92295 29.0104 10.1207C28.8641 10.6883 28.8813 11.9093 29.019 12.4768V12.4596Z" fill="#A09EB0"/>
<path fill-rule="evenodd" clip-rule="evenodd" d="M9.14378 12.1847L9.15239 10.5165C9.33315 10.2413 8.90276 10.3789 9.59138 10.3015C9.80658 10.2757 9.89265 10.3101 10.1853 10.2671C9.93569 10.1123 8.2744 10.0005 7.77515 10.2843L8.79086 10.3703C9.29872 11.4623 8.45516 12.3136 9.15239 12.1761L9.14378 12.1847Z" fill="#3C3C55"/>
<path fill-rule="evenodd" clip-rule="evenodd" d="M15.6856 12.3224C15.393 11.6173 15.7201 11.0325 15.4618 10.379L14.4978 10.2844C14.7818 10.1039 15.2466 10.1297 15.677 10.1383C16.357 10.1555 16.5808 10.0609 16.8993 10.3016C16.7358 10.3016 16.5206 10.2844 16.3829 10.293C16.3398 10.293 16.1849 10.293 16.1419 10.3016C15.8148 10.3704 16.0386 10.2328 15.8492 10.4478C16.2968 10.422 16.6497 10.4822 17.0112 10.3102C16.8391 9.92328 17.2522 10.0093 15.7889 10.0093C15.2208 10.0093 14.7388 9.89749 14.3342 10.1899C14.5752 10.5596 14.954 10.4048 15.4791 10.4134C15.4877 10.9466 15.2897 11.987 15.677 12.3138L15.6856 12.3224Z" fill="#8C8BA3"/>
<path fill-rule="evenodd" clip-rule="evenodd" d="M1.52588 11.402H2.60182C2.48132 11.0409 2.3436 10.8001 2.06815 10.5938C1.79271 10.7915 1.64638 11.0495 1.53449 11.402H1.52588Z" fill="#FCFEFE"/>
<path fill-rule="evenodd" clip-rule="evenodd" d="M73.8997 11.3762L75.0014 11.402L74.528 10.5938C74.2095 10.7399 74.0374 11.0839 73.8997 11.3762Z" fill="#FCFEFE"/>
<path fill-rule="evenodd" clip-rule="evenodd" d="M102.856 11.359L103.958 11.402L103.476 10.5679L102.856 11.359Z" fill="#FCFEFE"/>
<path fill-rule="evenodd" clip-rule="evenodd" d="M0.148682 4.69469C0.381087 5.09884 0.174504 4.87527 0.510201 5.15903C0.131466 3.93799 0.44134 4.24755 0.510201 4.13577C0.845897 4.29055 0.630707 4.14437 0.828682 4.41953C1.02666 4.69469 0.733999 4.45392 1.02666 4.72049L0.966404 4.10997L0.148682 4.09277V4.69469Z" fill="#575786"/>
</svg>
