<svg width="544" height="498" viewBox="0 0 544 498" fill="none" xmlns="http://www.w3.org/2000/svg">
<mask id="mask0_440_2766" style="mask-type:alpha" maskUnits="userSpaceOnUse" x="0" y="0" width="544" height="498">
<path d="M230.581 497.123C156.72 366.813 7.31245 103.496 0.572266 92.712L279.448 0.876953L544 92.712L316.519 497.123H230.581Z" fill="#C4C4C4"/>
</mask>
<g mask="url(#mask0_440_2766)">
<g filter="url(#filter0_d_440_2766)">
<path fill-rule="evenodd" clip-rule="evenodd" d="M663.862 720.392C691.467 720.392 716.948 704.309 725.746 678.143C741.746 630.552 750.418 579.595 750.418 526.612C750.418 515.307 741.074 506.391 729.769 506.391H367.142C328.482 506.391 297.142 537.731 297.142 576.391V650.392C297.142 689.052 328.482 720.392 367.142 720.392H663.862ZM623.756 849.62C659.896 810.643 627.681 754.093 574.527 754.093H-24.0582C-77.2121 754.093 -109.428 810.643 -73.2869 849.62C13.4996 943.217 137.526 1001.8 275.234 1001.8C412.943 1001.8 536.969 943.217 623.756 849.62ZM-113.393 720.392C-140.998 720.392 -166.479 704.309 -175.277 678.143C-191.277 630.552 -199.949 579.595 -199.949 526.612C-199.949 515.307 -190.605 506.391 -179.3 506.391H183.331C221.99 506.391 253.331 537.731 253.331 576.391V650.392C253.331 689.052 221.991 720.392 183.331 720.392H-113.393ZM-181.748 395.911C-193.214 436.078 -160.343 472.69 -118.572 472.69H79.4161C133.302 472.69 166.981 414.357 140.038 367.691L43.7079 200.842C23.2733 165.448 -23.4282 154.757 -52.9782 182.99C-113.161 240.49 -158.262 313.642 -181.748 395.911ZM96.3233 86.2607C60.7444 100.731 49.6919 143.805 68.8963 177.068L224.671 446.878C233.893 462.851 250.936 472.69 269.38 472.69C287.824 472.69 304.866 462.851 314.088 446.878L472.034 173.308C491.531 139.539 479.784 95.8047 443.313 82.0098C391.059 62.2455 334.41 51.4287 275.234 51.4287C211.945 51.4287 151.546 63.8017 96.3233 86.2607ZM594.837 174.964C565.039 147.865 519.273 158.889 499.135 193.77L398.722 367.69C371.779 414.357 405.458 472.69 459.344 472.69H669.041C710.812 472.69 743.683 436.076 732.216 395.909C707.623 309.763 659.329 233.613 594.837 174.964Z" fill="white"/>
</g>
</g>
<defs>
<filter id="filter0_d_440_2766" x="-207.938" y="48.7656" width="966.346" height="966.345" filterUnits="userSpaceOnUse" color-interpolation-filters="sRGB">
<feFlood flood-opacity="0" result="BackgroundImageFix"/>
<feColorMatrix in="SourceAlpha" type="matrix" values="0 0 0 0 0 0 0 0 0 0 0 0 0 0 0 0 0 0 127 0" result="hardAlpha"/>
<feOffset dy="5.32632"/>
<feGaussianBlur stdDeviation="3.99474"/>
<feComposite in2="hardAlpha" operator="out"/>
<feColorMatrix type="matrix" values="0 0 0 0 0 0 0 0 0 0 0 0 0 0 0 0 0 0 0.1 0"/>
<feBlend mode="normal" in2="BackgroundImageFix" result="effect1_dropShadow_440_2766"/>
<feBlend mode="normal" in="SourceGraphic" in2="effect1_dropShadow_440_2766" result="shape"/>
</filter>
</defs>
</svg>
