<svg width="126" height="136" viewBox="0 0 126 136" fill="none" xmlns="http://www.w3.org/2000/svg">
<path d="M84.4899 81L108.297 94.7449V122.235L84.4899 135.98L60.6829 122.235V94.7449L84.4899 81Z" fill="white"/>
<path d="M84.4889 85.3027L104.57 96.8963V120.083L84.4889 131.677L64.4082 120.083V96.8963L84.4889 85.3027Z" fill="#BDBDBD"/>
<path d="M98.4899 0L122.297 13.7449V41.2348L98.4899 54.9798L74.6829 41.2348V13.7449L98.4899 0Z" fill="white"/>
<path d="M98.4889 4.30273L118.57 15.8963V39.0834L98.4889 50.677L78.4082 39.0834V15.8963L98.4889 4.30273Z" fill="#BDBDBD"/>
<path d="M27.4899 25L51.2968 38.7449V66.2348L27.4899 79.9798L3.68295 66.2348L3.68295 38.7449L27.4899 25Z" fill="white"/>
<path d="M27.4889 29.3027L47.5695 40.8963V64.0834L27.4889 75.677L7.40824 64.0834L7.40824 40.8963L27.4889 29.3027Z" fill="#BDBDBD"/>
</svg>
