<?xml version="1.0" encoding="UTF-8"?>
<svg width="225px" height="225px" viewBox="0 0 225 225" version="1.1" xmlns="http://www.w3.org/2000/svg" xmlns:xlink="http://www.w3.org/1999/xlink">
    <title>15</title>
    <g id="Page-1" stroke="none" stroke-width="1" fill="none" fill-rule="evenodd">
        <g id="romashka" transform="translate(-279.000000, -535.000000)">
            <g id="15" transform="translate(279.000000, 535.000000)">
                <path d="M78.0434003,219.02 C80.7435003,219.877 83.5446003,218.18 84.1750003,215.418 L99.5530003,148.046 C99.7860003,147.028 99.1900003,146.007 98.2110003,145.644 C97.2050003,145.271 96.0650003,145.694 95.5990003,146.661 L65.6872003,208.745 C64.4877003,211.234 65.5311003,214.235 68.0729003,215.319 C71.3206003,216.705 74.6470003,217.941 78.0434003,219.02 Z" id="Path" fill="#C4C4C4"></path>
                <path d="M88.0162003,216.565 C87.4019003,219.256 89.0830003,221.947 91.7986003,222.442 C95.3810003,223.094 99.0220003,223.577 102.714,223.88 C105.537,224.112 107.889,221.834 107.889,219.002 L107.889,149.779 C107.889,148.653 107.015,147.722 105.9,147.57 C104.743,147.411 103.637,148.132 103.377,149.27 L88.0162003,216.565 Z" id="Path" fill="#C4C4C4"></path>
                <path d="M111.889,224.126 C111.889,224.2 111.95,224.261 112.025,224.261 C117.37,224.261 122.627,223.887 127.773,223.164 C130.582,222.769 132.374,220.022 131.743,217.257 L116.268,149.451 C116.026,148.391 115.026,147.696 113.943,147.785 C112.808,147.879 111.889,148.804 111.889,149.943 L111.889,224.126 Z" id="Path" fill="#C4C4C4"></path>
                <path d="M135.707,216.648 C136.32,219.336 138.997,221.031 141.656,220.304 C145.318,219.304 148.904,218.122 152.406,216.77 C155.043,215.751 156.168,212.684 154.943,210.137 L124.763,147.414 C124.254,146.357 123.03,145.869 121.911,146.223 C120.737,146.593 119.991,147.786 120.265,148.986 L135.707,216.648 Z" id="Path" fill="#C4C4C4"></path>
                <path d="M158.643,208.602 C159.842,211.094 162.843,212.149 165.277,210.834 C168.421,209.134 171.474,207.288 174.428,205.306 C176.78,203.728 177.198,200.481 175.433,198.267 L131.741,143.476 C131.125,142.703 130.028,142.526 129.173,143.021 C128.269,143.544 127.883,144.672 128.336,145.614 L158.643,208.602 Z" id="Path" fill="#C4C4C4"></path>
                <path d="M178.722,195.975 C180.443,198.133 183.595,198.497 185.676,196.683 C188.662,194.079 191.509,191.32 194.205,188.418 C196.123,186.353 195.8,183.114 193.597,181.356 L139.215,137.951 C138.197,137.138 136.732,137.247 135.778,138.134 C134.769,139.073 134.592,140.635 135.451,141.713 L178.722,195.975 Z" id="Path" fill="#C4C4C4"></path>
                <path d="M196.219,178.331 C198.387,180.061 201.559,179.702 203.177,177.449 C205.145,174.706 206.994,171.871 208.713,168.951 C210.152,166.509 209.12,163.399 206.567,162.169 L143.067,131.587 C142.318,131.226 141.421,131.486 140.947,132.169 C140.439,132.901 140.562,133.908 141.258,134.464 L196.219,178.331 Z" id="Path" fill="#C4C4C4"></path>
                <path d="M208.548,158.683 C211.033,159.88 214.03,158.842 215.118,156.306 C216.768,152.46 218.21,148.502 219.428,144.448 C220.235,141.764 218.539,139.011 215.807,138.386 L148.317,122.949 C146.871,122.618 145.421,123.468 144.874,124.847 C144.291,126.316 144.876,128.018 146.3,128.704 L208.548,158.683 Z" id="Path" fill="#FF6E4E"></path>
                <path d="M216.742,134.497 C219.463,135.119 222.177,133.396 222.634,130.643 C223.368,126.229 223.843,121.727 224.045,117.154 C224.166,114.395 221.916,112.154 219.154,112.154 L150.632,112.154 C148.852,112.154 147.413,113.606 147.221,115.375 C147.029,117.133 148.116,118.8 149.839,119.194 L216.742,134.497 Z" id="Path" fill="#FF6E4E"></path>
                <path d="M218.909,108.154 C221.738,108.154 224.015,105.806 223.788,102.986 C223.491,99.306 223.016,95.6753 222.372,92.1039 C221.882,89.3841 219.188,87.6982 216.494,88.313 L148.727,103.778 C147.62,104.03 146.919,105.109 147.078,106.234 C147.229,107.312 148.132,108.154 149.221,108.154 L218.909,108.154 Z" id="Path" fill="#FF6E4E"></path>
                <path d="M215.371,84.4665 C218.129,83.8369 219.827,81.0414 218.975,78.343 C217.858,74.8019 216.569,71.3368 215.119,67.9573 C214.031,65.4218 211.035,64.3834 208.549,65.5804 L146.186,95.6124 C145.131,96.1207 144.675,97.369 145.089,98.464 C145.488,99.52 146.591,100.162 147.691,99.911 L215.371,84.4665 Z" id="Path" fill="#FF6E4E"></path>
                <path d="M206.568,62.0945 C209.122,60.8648 210.153,57.7547 208.715,55.3126 C206.856,52.1555 204.846,49.0975 202.696,46.1483 C201.071,43.9187 197.918,43.5725 195.761,45.2925 L141.848,88.2768 C140.941,89.0005 140.775,90.3084 141.415,91.2772 C142.033,92.2131 143.243,92.5901 144.253,92.1036 L206.568,62.0945 Z" id="Path" fill="#FF6E4E"></path>
                <path d="M193.058,42.3322 C195.273,40.5659 195.587,37.3055 193.644,35.2435 C191.116,32.5613 188.458,30.0036 185.679,27.5807 C183.598,25.7666 180.446,26.13 178.725,28.2882 L135.962,81.91 C135.214,82.847 135.35,84.203 136.214,85.0334 C137.052,85.8387 138.36,85.9417 139.269,85.2173 L193.058,42.3322 Z" id="Path" fill="#FF6E4E"></path>
                <path d="M175.436,25.9967 C177.202,23.7825 176.783,20.5356 174.432,18.9574 C171.496,16.9869 168.461,15.1516 165.338,13.4602 C162.905,12.1431 159.903,13.1967 158.702,15.6887 L128.982,77.3749 C128.503,78.368 128.898,79.5577 129.84,80.1299 C130.76,80.6886 131.961,80.5108 132.633,79.6692 L175.436,25.9967 Z" id="Path" fill="#FF6E4E"></path>
                <path d="M155.003,14.1506 C156.23,11.6038 155.107,8.5363 152.471,7.5163 C148.95,6.15411 145.343,4.96454 141.661,3.95799 C139.001,3.23113 136.325,4.92636 135.711,7.614 L120.624,73.7086 C120.331,74.9917 121.123,76.2692 122.373,76.682 C123.588,77.0835 124.932,76.5639 125.488,75.4107 L155.003,14.1506 Z" id="Path" fill="#FF6E4E"></path>
                <path d="M131.747,7.0051 C132.378,4.23979 130.586,1.49272 127.777,1.09782 C122.63,0.37419 117.371,0 112.025,0 C111.95,0 111.889,0.06063 111.889,0.13539 L111.889,72.648 C111.889,73.8784 112.883,74.8779 114.109,74.9844 C115.287,75.0867 116.378,74.3352 116.642,73.1823 L131.747,7.0051 Z" id="Path" fill="#FF6E4E"></path>
                <path d="M107.889,5.25939 C107.889,2.42694 105.537,0.14899 102.714,0.38102 C99.0230003,0.68441 95.3830003,1.16657 91.8018003,1.81882 C89.0862003,2.31344 87.4050003,5.00472 88.0192003,7.6958 L103.008,73.3738 C103.29,74.6075 104.494,75.3842 105.747,75.2071 C106.947,75.0376 107.889,74.0356 107.889,72.8239 L107.889,5.25939 Z" id="Path" fill="#FF6E4E"></path>
                <path d="M84.1780003,8.8424 C83.5477003,6.08043 80.7467003,4.38289 78.0466003,5.24043 C74.6644003,6.31459 71.3518003,7.5448 68.1172003,8.9227 C65.5751003,10.0056 64.5304003,13.0062 65.7284003,15.4962 L94.9310003,76.1873 C95.4380003,77.2425 96.6890003,77.6947 97.7810003,77.274 C98.8230003,76.8728 99.4550003,75.7797 99.2060003,74.6914 L84.1780003,8.8424 Z" id="Path" fill="#FF6E4E"></path>
                <path d="M62.2285003,17.4479 C61.0016003,14.8979 57.8985003,13.8641 55.4564003,15.2938 C52.1873003,17.2076 49.0238003,19.2822 45.9767003,21.5068 C43.7492003,23.133 43.4044003,26.2842 45.1239003,28.4405 L86.7923003,80.6936 C87.6519003,81.7716 89.2135003,81.9476 90.3527003,81.171 C91.4278003,80.4381 91.8618003,79.035 91.2976003,77.8625 L62.2285003,17.4479 Z" id="Path" fill="#FF6E4E"></path>
                <path d="M42.1692003,31.1509 C40.4020003,28.9347 37.1398003,28.6217 35.0784003,30.5672 C32.6587003,32.8507 30.3407003,35.2406 28.1317003,37.7296 C26.2889003,39.806 26.6406003,42.982 28.8104003,44.7138 L81.4698003,86.7437 C82.2745003,87.386 83.4411003,87.2654 84.1421003,86.5113 C84.8046003,85.7985 84.8757003,84.7058 84.2690003,83.945 L42.1692003,31.1509 Z" id="Path" fill="#FF6E4E"></path>
                <path d="M26.4281003,47.9303 C24.2271003,46.1735 21.0004003,46.5744 19.4104003,48.8987 C17.1749003,52.1667 15.1079003,55.559 13.2219003,59.0632 C11.9129003,61.4951 12.9683003,64.49 15.4566003,65.6883 L75.3548003,94.536 C76.7442003,95.2051 78.4061003,94.6045 79.1717003,93.2659 C79.8890003,92.0119 79.6460003,90.4059 78.5169003,89.5047 L26.4281003,47.9303 Z" id="Path" fill="#FF6E4E"></path>
                <path d="M13.9477003,69.4014 C11.3968003,68.1728 8.32490033,69.3021 7.31000033,71.9453 C6.20750033,74.8163 5.21970033,77.7441 4.35220033,80.7231 C3.57310033,83.3988 5.26830033,86.1251 7.98500033,86.7465 L74.0804003,101.865 C74.8909003,102.05 75.6994003,101.553 75.9408003,100.757 C76.1670003,100.012 75.8318003,99.205 75.1297003,98.867 L13.9477003,69.4014 Z" id="Path" fill="#FF6E4E"></path>
                <path d="M7.16180033,90.6615 C4.42620033,90.0358 1.70011033,91.7823 1.26370033,94.5545 C0.826390329,97.332 0.491070329,100.144 0.261710329,102.986 C0.0340603288,105.806 2.31100033,108.154 5.14070033,108.154 L73.4926003,108.154 C74.0701003,108.154 74.5503003,107.71 74.6166003,107.136 C74.6832003,106.56 74.3132003,106.022 73.7479003,105.892 L7.16180033,90.6615 Z" id="Path-Copy-15" fill="#C4C4C4"></path>
                <path d="M4.89520033,112.154 C2.13340033,112.154 -0.116929671,114.395 0.00471032883,117.154 C0.167330329,120.843 0.508180329,124.485 1.01884033,128.073 C1.41807033,130.878 4.16270033,132.665 6.92480033,132.035 L72.6494003,117.036 C73.8298003,116.767 74.6002003,115.651 74.4999003,114.444 C74.3950003,113.182 73.3678003,112.154 72.1008003,112.154 L4.89520033,112.154 Z" id="Path" fill="#C4C4C4"></path>
                <path d="M7.55680033,135.993 C4.86600033,136.607 3.17040033,139.289 3.90270033,141.951 C4.87300033,145.477 6.01130033,148.933 7.30820033,152.311 C8.32310033,154.954 11.3949003,156.084 13.9459003,154.855 L74.9441003,125.481 C76.0083003,124.968 76.4946003,123.732 76.1318003,122.608 C75.7550003,121.441 74.5642003,120.702 73.3681003,120.975 L7.55680033,135.993 Z" id="Path" fill="#C4C4C4"></path>
                <path d="M15.4545003,158.569 C12.9663003,159.767 11.9107003,162.762 13.2196003,165.194 C14.9573003,168.423 16.8487003,171.557 18.8840003,174.586 C20.4627003,176.936 23.7081003,177.353 25.9215003,175.588 L79.0416003,133.236 C79.9723003,132.494 80.1685003,131.166 79.5561003,130.146 C78.9238003,129.092 77.5980003,128.642 76.4907003,129.175 L15.4545003,158.569 Z" id="Path" fill="#C4C4C4"></path>
                <path d="M27.5130003,185.828 C25.6970003,183.748 26.0601003,180.593 28.2194003,178.872 L81.4492003,136.432 C82.3818003,135.689 83.7311003,135.824 84.5574003,136.684 C85.3586003,137.518 85.4608003,138.82 84.7397003,139.724 L42.1664003,193.108 C40.3991003,195.324 37.1369003,195.637 35.0756003,193.691 C32.4300003,191.194 29.9059003,188.57 27.5130003,185.828 Z" id="Path" fill="#C4C4C4"></path>
                <path d="M45.9736003,202.752 C43.7462003,201.126 43.4015003,197.975 45.1211003,195.818 L87.6621003,142.475 C88.4582003,141.476 89.8963003,141.295 90.9655003,141.993 C92.0070003,142.673 92.4340003,144.015 91.8944003,145.135 L62.1878003,206.792 C60.9595003,209.341 57.8563003,210.374 55.4149003,208.943 C52.1594003,207.035 49.0087003,204.968 45.9736003,202.752 Z" id="Path" fill="#C4C4C4"></path>
            </g>
        </g>
    </g>
</svg>