<svg width="80" height="80" viewBox="0 0 80 80" fill="none" xmlns="http://www.w3.org/2000/svg">
<path d="M65.4631 26.3858C62.6263 24.9683 43.9231 15.6158 41.0881 14.1983C40.5613 13.9339 39.9387 13.9339 39.41 14.1983L15.035 26.3858C14.3863 26.712 14 27.4302 14 28.0639V52.4389C14 53.1495 14.4012 53.7983 15.0369 54.117L39.4119 66.3045C39.9613 66.582 40.5894 66.5558 41.09 66.3045L65.465 54.117C66.0988 53.7983 66.5 53.1495 66.5 52.4389V28.0639C66.5 27.4152 66.1063 26.7083 65.4631 26.3858ZM40.25 17.9727L47.5794 21.6383L27.3988 31.7295L20.0675 28.0639L40.25 17.9727ZM38.375 61.5927L17.75 51.2802V31.0977L38.375 41.4102V61.5927ZM40.25 38.1552L31.5912 33.8258L51.7738 23.7345L60.4325 28.0639L40.25 38.1552ZM62.75 51.2802L42.125 61.5927V41.4102L62.75 31.0977V51.2802Z" fill="#FF6E4E"/>
</svg>
