<svg width="80" height="80" viewBox="0 0 80 80" fill="none" xmlns="http://www.w3.org/2000/svg">
<path d="M62.5006 33.0325L58.4356 23.545C57.2506 20.785 54.545 19 51.5412 19H28.9587C25.955 19 23.2494 20.785 22.0662 23.545L18.0012 33.0325C15.6331 34.2944 14 36.76 14 39.625V43.375C14 46.1388 15.5187 48.5312 17.75 49.8325V56.5C17.75 58.5681 19.4319 60.25 21.5 60.25H29C31.0681 60.25 32.75 58.5681 32.75 56.5V50.875H47.75V56.5C47.75 58.5681 49.4319 60.25 51.5 60.25H59C61.0681 60.25 62.75 58.5681 62.75 56.5V49.8325C64.9813 48.5312 66.5 46.1388 66.5 43.375V39.625C66.5 36.76 64.8669 34.2944 62.5006 33.0325ZM25.5125 25.0225C26.105 23.6425 27.4569 22.75 28.9587 22.75H51.5412C53.0431 22.75 54.395 23.6425 54.9875 25.0225L58.0306 32.125H22.4694L25.5125 25.0225ZM29.0019 56.5H21.5V50.875H29L29.0019 56.5ZM59 50.875L59.0019 56.5H51.5V50.875H59ZM62.75 43.375C62.75 45.4431 61.0681 47.125 59 47.125C40.9737 47.125 39.5263 47.125 21.5 47.125C19.4319 47.125 17.75 45.4431 17.75 43.375V39.625C17.75 37.5569 19.4319 35.875 21.5 35.875H59C61.0681 35.875 62.75 37.5569 62.75 39.625V43.375Z" fill="#FF6E4E"/>
<path d="M29 41.5C29 43.5719 27.3219 45.25 25.25 45.25C23.1781 45.25 21.5 43.5719 21.5 41.5C21.5 39.4281 23.1781 37.75 25.25 37.75C27.3219 37.75 29 39.4281 29 41.5Z" fill="#FF6E4E"/>
<path d="M59 41.5C59 43.5719 57.3219 45.25 55.25 45.25C53.1781 45.25 51.5 43.5719 51.5 41.5C51.5 39.4281 53.1781 37.75 55.25 37.75C57.3219 37.75 59 39.4281 59 41.5Z" fill="#FF6E4E"/>
<path d="M47.75 41.5C47.75 42.535 46.91 43.375 45.875 43.375H34.625C33.59 43.375 32.75 42.535 32.75 41.5C32.75 40.465 33.59 39.625 34.625 39.625H45.875C46.91 39.625 47.75 40.465 47.75 41.5Z" fill="#FF6E4E"/>
</svg>
