<svg width="120" height="120" viewBox="0 0 120 120" fill="none" xmlns="http://www.w3.org/2000/svg">
<path fill-rule="evenodd" clip-rule="evenodd" d="M26.4999 23C26.4999 16.0964 32.0964 10.5 38.9999 10.5H80.9999C87.9035 10.5 93.4999 16.0964 93.4999 23V97C93.4999 103.904 87.9035 109.5 80.9999 109.5H38.9999C32.0964 109.5 26.4999 103.904 26.4999 97V23ZM38.9999 17.5C35.9624 17.5 33.4999 19.9624 33.4999 23V97C33.4999 100.038 35.9624 102.5 38.9999 102.5H80.9999C84.0375 102.5 86.4999 100.038 86.4999 97V23C86.4999 19.9624 84.0375 17.5 80.9999 17.5H38.9999ZM60.4999 34.5C57.1862 34.5 54.4999 37.1863 54.4999 40.5C54.4999 43.8137 57.1862 46.5 60.4999 46.5C63.8136 46.5 66.4999 43.8137 66.4999 40.5C66.4999 37.1863 63.8136 34.5 60.4999 34.5ZM47.4999 40.5C47.4999 33.3203 53.3202 27.5 60.4999 27.5C67.6796 27.5 73.4999 33.3203 73.4999 40.5C73.4999 46.3088 69.6901 51.2278 64.4328 52.8945C73.657 54.7735 80.4999 63.1353 80.4999 73H73.4999C73.4999 65.4449 67.5819 59.5 60.4999 59.5C53.418 59.5 47.4999 65.4449 47.4999 73H40.4999C40.4999 63.1353 47.3429 54.7735 56.5671 52.8945C51.3098 51.2278 47.4999 46.3088 47.4999 40.5Z" fill="#FF6E4E"/>
<circle cx="60" cy="91" r="4" fill="#FF6E4E"/>
</svg>
