<svg width="53" height="54" viewBox="0 0 53 54" fill="none" xmlns="http://www.w3.org/2000/svg">
<path d="M48.4138 26.069H20.4828V22.3448H29.7931C31.847 22.3448 33.5172 20.6746 33.5172 18.6207V3.72414C33.5172 1.67028 31.847 0 29.7931 0H7.44828C5.39441 0 3.72414 1.67028 3.72414 3.72414V18.6207C3.72414 20.6746 5.39441 22.3448 7.44828 22.3448H16.7586V26.069H3.72414C1.67028 26.069 0 27.7392 0 29.7931V52.1379C0 53.1658 0.832345 54 1.86207 54C2.89179 54 3.72414 53.1658 3.72414 52.1379V37.2414H29.7931V42.8276C29.7931 43.8554 30.6255 44.6897 31.6552 44.6897H48.4138V52.1379C48.4138 53.1658 49.2461 54 50.2759 54C51.3056 54 52.1379 53.1658 52.1379 52.1379V29.7931C52.1379 27.7392 50.4677 26.069 48.4138 26.069ZM7.44828 3.72414H29.7931L29.795 18.6207H7.44828V3.72414ZM3.72414 33.5172V29.7931H29.7931V33.5172H3.72414ZM33.5172 40.9655V29.7931H48.4138V40.9655H33.5172Z" fill="#FF6E4E"/>
</svg>
