<svg width="50" height="50" viewBox="0 0 50 50" fill="none" xmlns="http://www.w3.org/2000/svg">
<path d="M48.3002 25.001C48.3032 28.0627 47.7027 31.0949 46.5331 33.9244C45.3635 36.7539 43.6477 39.3252 41.4838 41.4912C39.3199 43.6572 36.7503 45.3755 33.9219 46.5478C31.0936 47.7202 28.0619 48.3236 25.0002 48.3236C21.9385 48.3236 18.9068 47.7202 16.0784 46.5478C13.2501 45.3755 10.6805 43.6572 8.5166 41.4912C6.3527 39.3252 4.63691 36.7539 3.46731 33.9244C2.29771 31.0949 1.69723 28.0627 1.70021 25.001L1.70021 24.999C1.69723 21.9373 2.29771 18.905 3.46731 16.0756C4.63691 13.2461 6.3527 10.6748 8.5166 8.50881C10.6805 6.34281 13.2501 4.62452 16.0784 3.45217C18.9068 2.27982 21.9385 1.67639 25.0002 1.67639C28.0619 1.67639 31.0936 2.27982 33.9219 3.45217C36.7503 4.62452 39.3199 6.34281 41.4838 8.50881C43.6477 10.6748 45.3635 13.2461 46.5331 16.0756C47.7027 18.905 48.3032 21.9373 48.3002 24.999V25.001Z" stroke="#FF6E4E" stroke-width="2"/>
<path d="M21.3794 10.9563C21.217 10.9563 21.0815 11.1779 21.0815 11.4438L22.4337 29.7812C22.4337 30.0471 22.569 30.2687 22.7316 30.2687C22.7316 30.2687 23.7992 30.2838 24.6795 30.2687C24.9694 30.2638 25.0582 30.2945 25.3211 30.2687C26.2014 30.2838 27.2691 30.2687 27.2691 30.2687C27.4316 30.2687 27.567 30.0471 27.567 29.7812L28.9191 11.4438C28.9191 11.1779 28.7836 10.9938 28.6212 10.9938H25.344C25.3319 10.9914 25.3336 10.9563 25.3211 10.9563H21.3794Z" fill="#FF6E4E"/>
<path d="M27.9818 36.1187C27.9818 36.8945 27.6737 37.6385 27.1251 38.187C26.5766 38.7356 25.8326 39.0437 25.0568 39.0437C24.2811 39.0437 23.5371 38.7356 22.9885 38.187C22.44 37.6385 22.1318 36.8945 22.1318 36.1187C22.1318 35.343 22.44 34.599 22.9885 34.0504C23.5371 33.5019 24.2811 33.1937 25.0568 33.1937C25.8326 33.1937 26.5766 33.5019 27.1251 34.0504C27.6737 34.599 27.9818 35.343 27.9818 36.1187Z" fill="#FF6E4E"/>
</svg>
