<svg width="120" height="120" viewBox="0 0 120 120" fill="none" xmlns="http://www.w3.org/2000/svg">
<g clip-path="url(#clip0_23_699)">
<path d="M93.6922 13.8884C90.3135 10.0912 85.63 8 80.5044 8C74.7832 8 69.8239 10.7052 66.1626 15.8229C65.8879 16.2066 65.6312 16.5903 65.3905 16.9702C65.15 16.5901 64.8932 16.2066 64.6186 15.8229C60.9571 10.7052 55.9978 8 50.2766 8C45.1509 8 40.4673 10.0912 37.0887 13.8882C33.8826 17.4916 32.1166 22.3089 32.1166 27.4526C32.1166 33.0424 34.2858 38.2004 38.9424 43.6855C43.0055 48.4712 48.8336 53.3902 55.5822 59.0862C58.076 61.1912 60.6548 63.3677 63.3952 65.7428C63.9676 66.2389 64.6789 66.4871 65.3903 66.4871C66.1014 66.4871 66.8128 66.2389 67.3854 65.7428C70.1253 63.3683 72.7038 61.1918 75.1975 59.0873C79.5316 55.429 83.2746 52.2698 86.5227 49.2055C92.829 43.2555 98.6643 36.5022 98.6643 27.4528C98.6643 22.3089 96.8986 17.4918 93.6922 13.8884ZM82.3418 44.7739C79.2166 47.7226 75.5331 50.8315 71.2681 54.4312C69.3707 56.0325 67.4248 57.6749 65.3905 59.4194C63.3558 57.6751 61.4092 56.0323 59.5118 54.4306C46.2277 43.2184 38.2092 36.4506 38.2092 27.4528C38.2088 19.8363 43.3966 14.0927 50.2764 14.0927C53.9519 14.0927 57.0778 15.8229 59.5671 19.2352C61.6101 22.0355 62.4488 24.9386 62.4545 24.9581C62.8201 26.2778 64.021 27.1914 65.3903 27.1914C66.7595 27.1914 67.9604 26.2778 68.326 24.9581C68.3561 24.8494 71.4399 14.0927 80.5044 14.0927C87.384 14.0927 92.572 19.8365 92.572 27.4528C92.572 32.9715 89.7037 37.8278 82.3418 44.7739Z" fill="#FF6E4E"/>
<path d="M106.85 69.3532C104.323 69.3532 101.885 70.4141 100.162 72.2637L91.2088 81.8752C90.0516 78.1548 86.5766 75.4457 82.4804 75.4457H68.4079C66.4378 75.4457 64.538 74.7289 63.0588 73.4272C55.1038 66.4267 43.1467 66.3652 35.1162 73.2337C33.4601 70.889 30.7313 69.3534 27.6487 69.3534H15.0578C13.3755 69.3534 12.0116 70.7171 12.0116 72.3996V108.954C12.0116 110.636 13.3753 112 15.0578 112H27.6487C30.3844 112 32.8414 110.79 34.5176 108.879L36.3215 109.386C42.492 111.121 48.8706 112 55.2802 112H82.4802C89.1561 112 95.5331 108.811 99.5388 103.471L114.164 83.9712C114.164 83.9708 114.164 83.9704 114.164 83.97C115.358 82.3787 115.988 80.4844 115.988 78.4915C115.988 73.4526 111.889 69.3532 106.85 69.3532ZM30.695 102.861C30.695 104.541 29.3285 105.907 27.6487 105.907H18.1039V75.4455H27.6487C29.3283 75.4455 30.695 76.8119 30.695 78.4917V102.861ZM109.29 80.3152C109.29 80.3154 109.29 80.3154 109.29 80.3156L94.665 99.8154C91.8038 103.63 87.2487 105.908 82.4802 105.908H55.2808C49.4285 105.908 43.6046 105.105 37.9707 103.521L36.7794 103.186C36.7832 103.078 36.7877 102.97 36.7877 102.861V79.8687L38.9105 78.0006C44.6468 72.9529 53.2981 72.9525 59.0347 78.0006C61.6268 80.2815 64.9554 81.5376 68.4083 81.5376H82.4808C84.1604 81.5376 85.527 82.9042 85.527 84.5839C85.527 86.2635 84.1606 87.6301 82.4808 87.6301H60.8307C59.1485 87.6301 57.7845 88.9939 57.7845 90.6764C57.7845 92.3589 59.1483 93.7226 60.8307 93.7226H84.522C87.049 93.7226 89.4863 92.6621 91.209 90.8129L104.62 76.4162C105.203 75.7902 105.995 75.4455 106.85 75.4455C108.529 75.4455 109.896 76.8119 109.896 78.4917C109.896 79.156 109.686 79.7865 109.29 80.3152Z" fill="#FF6E4E"/>
</g>
<defs>
<clipPath id="clip0_23_699">
<rect width="104" height="104" fill="white" transform="translate(12 8)"/>
</clipPath>
</defs>
</svg>
