<svg width="80" height="80" viewBox="0 0 80 80" fill="none" xmlns="http://www.w3.org/2000/svg">
<path d="M52.625 37.3755C52.625 38.4105 51.785 39.2505 50.75 39.2505V44.8755C50.75 51.0799 45.7044 56.1255 39.5 56.1255C33.2956 56.1255 28.25 51.0799 28.25 44.8755V39.2505C27.215 39.2505 26.375 38.4105 26.375 37.3755C26.375 36.3405 27.215 35.5005 28.25 35.5005H32C33.035 35.5005 33.875 36.3405 33.875 37.3755C33.875 38.4105 33.035 39.2505 32 39.2505V44.8755C32 49.0117 35.3637 52.3755 39.5 52.3755C43.6362 52.3755 47 49.0117 47 44.8755V39.2505C45.965 39.2505 45.125 38.4105 45.125 37.3755C45.125 36.3405 45.965 35.5005 47 35.5005H50.75C51.785 35.5005 52.625 36.3405 52.625 37.3755Z" fill="#FF6E4E"/>
<path d="M60.0069 19.844C59.8269 19.364 59.4594 18.9796 58.9906 18.7771L45.8656 13.1521C44.9525 12.7603 43.8931 13.1503 43.4488 14.0371L38.735 23.4665C37.115 14.9971 33.3219 13.0003 30.125 13.0003C25.0344 13.0003 21.725 18.4415 20.9206 28.0003H18.875C18.3406 28.0003 17.8325 28.2271 17.4781 28.6246C17.1219 29.0221 16.9531 29.5528 17.0113 30.0815L20.2044 58.8271C20.6281 62.6315 23.8325 65.5003 27.6594 65.5003H51.3406C55.1694 65.5003 58.3719 62.6315 58.7938 58.8271L61.9888 30.0815C62.0488 29.5509 61.8781 29.0221 61.5219 28.6246C61.1675 28.2271 60.6594 28.0003 60.125 28.0003H56.7069L59.9375 21.3159C60.1606 20.8546 60.185 20.3221 60.0069 19.844ZM46.0119 17.2959L55.7094 21.4509L52.5425 28.0003H40.6588L46.0119 17.2959ZM30.125 16.7503C32.9581 16.7503 34.9475 20.9146 35.57 28.0003H24.6838C25.3175 21.1003 27.3838 16.7503 30.125 16.7503ZM58.0306 31.7503L55.0663 58.4146C54.8563 60.3159 53.2531 61.7503 51.3406 61.7503H27.6594C25.745 61.7503 24.1438 60.3159 23.9319 58.4146L20.9694 31.7503H58.0306Z" fill="#FF6E4E"/>
</svg>
