<svg width="80" height="80" viewBox="0 0 80 80" fill="none" xmlns="http://www.w3.org/2000/svg">
<path d="M61.2016 43.2943C56.5767 42.6459 53.5634 40.895 51.322 38.0436L52.8996 37.2377C53.8874 36.7325 54.2873 35.5031 53.7934 34.4927C53.2975 33.4802 52.0978 33.0711 51.11 33.5784L49.1865 34.5622C48.4987 33.1611 47.8748 31.6127 47.2849 29.8822L48.9006 29.0559C49.8883 28.5506 50.2882 27.3213 49.7943 26.3109C49.2985 25.3004 48.0988 24.8913 47.111 25.3965L46.0452 25.9427C45.4414 23.8972 44.8255 21.6758 43.9298 18.4788C43.7338 17.7854 43.1979 17.2495 42.5161 17.0674C41.8382 16.8874 41.1104 17.0818 40.6065 17.587C36.4855 21.7311 28.4195 22.7579 23.4346 17.6054C23.0067 17.1677 22.4029 16.9488 21.811 17.0102C21.2112 17.0715 20.6693 17.407 20.3394 17.9245L13.1651 29.1234C11.2955 31.7293 11.7154 35.272 14.1409 37.3666L41.0024 60.5518C42.0822 61.4866 43.4579 62 44.8735 62H66.0005C67.1062 62 68 61.0836 68 59.9545V51.4352C68 47.3361 65.0767 43.8363 61.2016 43.2943ZM64.001 57.9091H44.8735C44.4016 57.9091 43.9437 57.7393 43.5818 57.4264L16.7202 34.239C15.9244 33.5518 15.7825 32.392 16.4503 31.4552L17.1042 30.4365L46.1812 54.935C46.897 55.5323 47.7968 55.8636 48.7206 55.8636H64.001V57.9091ZM64.001 51.7727H48.7206L19.3076 26.994L22.4349 22.1115C28.0875 26.3313 35.6857 25.8363 40.8965 22.5124C41.4144 24.3615 41.9122 26.1206 42.4161 27.7959L39.1089 29.4875C38.1211 29.9927 37.7212 31.222 38.2151 32.2325C38.715 33.2511 39.9187 33.6479 40.8985 33.1468L43.6818 31.7231C44.2697 33.4025 44.8995 34.959 45.5954 36.397L43.1099 37.6693C42.1222 38.1745 41.7223 39.4038 42.2162 40.4143C42.716 41.4329 43.9198 41.8297 44.8995 41.3286L47.6509 39.9213C50.4382 43.8813 54.3373 46.4627 60.6578 47.3463C62.4793 47.6041 64.001 49.1668 64.001 51.7727Z" fill="#FF6E4E"/>
</svg>
