<svg width="80" height="80" viewBox="0 0 80 80" fill="none" xmlns="http://www.w3.org/2000/svg">
<path d="M40.5 58C47.3929 58 53 52.3929 53 45.5C53 38.6071 47.3929 33 40.5 33C33.6071 33 28 38.6071 28 45.5C28 52.3929 33.6071 58 40.5 58ZM40.5 36.5714C45.0679 36.5714 48.8036 40.0339 49.3232 44.4643C46.1125 46.0161 44.9571 45.0464 43.0482 43.3554C41.0196 41.5607 38.3732 39.2286 33.0339 40.6286C34.6304 38.1911 37.375 36.5714 40.5 36.5714ZM31.6321 44.8982C36.8089 42.6125 38.5339 44.1304 40.6804 46.0304C42.9 47.9946 45.0054 49.5875 48.8857 48.4571C47.6589 51.9232 44.3821 54.4286 40.5 54.4286C35.5625 54.4286 31.2625 50.3268 31.6321 44.8982Z" fill="#FF6E4E"/>
<path d="M56.625 15H24.375C21.4116 15 19 17.4036 19 20.3571V63.2143C19 64.2 19.8027 65 20.7917 65H60.2083C61.1973 65 62 64.2 62 63.2143V20.3571C62 17.4036 59.5884 15 56.625 15ZM22.5833 20.3571C22.5833 19.3732 23.3878 18.5714 24.375 18.5714H56.625C57.6122 18.5714 58.4167 19.3732 58.4167 20.3571V25.7143H22.5833V20.3571ZM58.4167 61.4286H22.5833V29.2857H58.4167V61.4286Z" fill="#FF6E4E"/>
<path d="M54 22C54 23.104 53.104 24 52 24C50.896 24 50 23.104 50 22C50 20.896 50.896 20 52 20C53.104 20 54 20.896 54 22Z" fill="#FF6E4E"/>
</svg>
