<svg width="120" height="120" viewBox="0 0 120 120" fill="none" xmlns="http://www.w3.org/2000/svg">
<path d="M59.9995 41.6591C68.7526 36.391 74.896 30.7231 74.7838 24.6568C74.7836 19.332 70.4518 15 65.127 15C63.2954 15 61.5214 15.5214 59.9995 16.4756C58.4774 15.5214 56.7036 15 54.8719 15C49.5472 15 45.2151 19.332 45.2151 24.6568C45.175 30.344 50.3533 35.8722 59.9995 41.6591ZM54.8719 20.6836C57.1899 20.6141 58.6805 23.0557 59.9995 24.484C61.1902 23.1486 63.043 20.472 65.127 20.6836C67.3179 20.6836 69.1002 22.466 69.1002 24.6568C69.1002 26.6284 67.4749 29.9736 59.9995 34.9269C52.524 29.9736 50.8987 26.6284 50.8987 24.6568C50.8987 22.466 52.6811 20.6836 54.8719 20.6836Z" fill="#FF6E4E"/>
<path d="M93.185 71.4033C97.2868 68.2749 99.9391 63.3381 99.9391 57.7928C99.9391 48.3582 92.2637 40.6829 82.8293 40.6829C73.3949 40.6829 65.7194 48.3584 65.7194 57.7928C65.7194 63.3379 68.3715 68.2743 72.4732 71.4029C71.47 71.847 70.4999 72.3525 69.5687 72.9166C67.037 70.6203 63.6794 69.2193 60.0002 69.2193C58.0691 69.2193 56.2272 69.6071 54.546 70.306C52.4872 68.4094 50.1187 66.8449 47.5258 65.697C51.6282 62.5685 54.281 57.6314 54.281 52.0857C54.281 42.6511 46.6055 34.9758 37.1711 34.9758C27.7367 34.9758 20.0612 42.6513 20.0612 52.0857C20.0612 57.631 22.7135 62.5676 26.8154 65.6962C17.8037 69.6848 11.5 78.7109 11.5 89.1827V112H108.5V94.8902C108.5 84.4181 102.196 75.392 93.185 71.4033ZM71.4028 57.7928C71.4028 51.4922 76.5286 46.3665 82.8291 46.3665C89.1295 46.3665 94.2554 51.4923 94.2554 57.7928C94.2554 64.0932 89.1295 69.2191 82.8291 69.2191C76.5286 69.2191 71.4028 64.0934 71.4028 57.7928ZM68.5727 83.4756C68.5727 88.2027 64.727 92.0484 60 92.0484C55.2729 92.0484 51.4272 88.2027 51.4272 83.4756C51.4272 78.7486 55.2729 74.9029 60 74.9029C64.727 74.9029 68.5727 78.7484 68.5727 83.4756ZM25.7444 52.0855C25.7444 45.7849 30.8703 40.6592 37.1709 40.6592C43.4715 40.6592 48.5972 45.7851 48.5972 52.0855C48.5972 58.386 43.4713 63.5118 37.1709 63.5118C30.8704 63.5118 25.7444 58.3862 25.7444 52.0855ZM43.1273 106.316H17.1836V89.1827C17.1836 78.1617 26.1498 69.1954 37.1709 69.1954C41.9138 69.1954 46.2754 70.8571 49.7062 73.6277C47.2547 76.1893 45.7436 79.6581 45.7436 83.4754C45.7436 87.9554 47.8227 91.9571 51.0644 94.5726C46.9344 97.1123 43.9601 101.356 43.1273 106.316ZM48.9312 106.316C50.1977 101.386 54.68 97.732 60 97.732C65.32 97.732 69.8023 101.386 71.0688 106.316H48.9312ZM102.816 106.316H76.8727C76.0398 101.356 73.0656 97.1123 68.9355 94.5726C72.1773 91.9572 74.2563 87.9554 74.2563 83.4754C74.2563 81.3511 73.7859 79.3357 72.9491 77.5228C75.8652 75.8573 79.2372 74.9027 82.8291 74.9027C93.8501 74.9027 102.816 83.8689 102.816 94.89V106.316Z" fill="#FF6E4E"/>
</svg>
