<svg width="50" height="50" viewBox="0 0 50 50" fill="none" xmlns="http://www.w3.org/2000/svg">
<path d="M39.3538 10.5479C38.8229 10.0384 38.0684 9.86858 37.3845 10.1047L8.36842 20.1243C7.57764 20.3973 7.04139 21.1368 7.00227 22.008C6.96321 22.8792 7.43082 23.6681 8.19356 24.0178L14.0204 26.6884L31.1759 16.7146C31.595 16.471 32.1208 16.5848 32.4135 16.982C32.7061 17.3793 32.6777 17.941 32.3466 18.3037L21.6514 30.0183L19.458 38.3198L24.7226 34.1904L30.948 39.5268C31.3107 39.8378 31.7538 40 32.2057 40C32.4209 39.9999 32.6381 39.9632 32.8493 39.8881C33.5046 39.6554 33.9903 39.0952 34.1487 38.3897L39.9472 12.5642C40.112 11.8301 39.8847 11.0575 39.3538 10.5479Z" fill="#FF6E4E"/>
</svg>
