<svg width="50" height="50" viewBox="0 0 50 50" fill="none" xmlns="http://www.w3.org/2000/svg">
<rect width="50" height="50" />
<path d="M36.1714 17.3743L26.7434 7.94623C25.767 6.96992 24.1841 6.96992 23.2078 7.94623L13.7797 17.3743C12.8034 18.3506 12.8034 19.9335 13.7797 20.9099L23.2078 30.3379C24.1841 31.3143 25.767 31.3143 26.7434 30.3379L36.1714 20.9099C37.1478 19.9335 37.1478 18.3506 36.1714 17.3743Z" stroke="#FF6E4E" stroke-width="2"/>
<path d="M36.7607 23.4517L27.3326 14.0236C26.0309 12.7219 23.9203 12.7219 22.6186 14.0236L13.1905 23.4517C11.8887 24.7535 11.8887 26.864 13.1905 28.1658L22.6186 37.5939C23.9203 38.8956 26.0309 38.8956 27.3326 37.5939L36.7607 28.1658C38.0624 26.864 38.0624 24.7535 36.7607 23.4517Z" />
<path d="M36.1714 29.8743L26.7434 20.4462C25.767 19.4699 24.1841 19.4699 23.2078 20.4462L13.7797 29.8743C12.8034 30.8506 12.8034 32.4335 13.7797 33.4099L23.2078 42.8379C24.1841 43.8143 25.767 43.8143 26.7434 42.8379L36.1714 33.4099C37.1478 32.4335 37.1478 30.8506 36.1714 29.8743Z" stroke="#FF6E4E" stroke-width="2"/>
</svg>
