<svg width="80" height="80" viewBox="0 0 80 80" fill="none" xmlns="http://www.w3.org/2000/svg">
<path d="M64.375 58.75H59.8638L42.1356 26.2506L45.3962 20.2731C45.8931 19.3637 45.5575 18.2256 44.6481 17.7287C43.7388 17.2318 42.6006 17.5693 42.1038 18.4768L40 22.3337L37.8962 18.4768C37.4013 17.5693 36.265 17.2318 35.3519 17.7287C34.4425 18.2256 34.1069 19.3637 34.6038 20.2731L37.8644 26.2506L20.1363 58.75H15.625C14.59 58.75 13.75 59.59 13.75 60.625C13.75 61.66 14.59 62.5 15.625 62.5H64.375C65.41 62.5 66.25 61.66 66.25 60.625C66.25 59.59 65.41 58.75 64.375 58.75ZM36.25 58.75V53.125C36.25 51.0568 37.9319 49.375 40 49.375C42.0681 49.375 43.75 51.0568 43.75 53.125V58.75H36.25ZM47.5 58.75V53.125C47.5 48.9887 44.1362 45.625 40 45.625C35.8638 45.625 32.5 48.9887 32.5 53.125V58.75H24.4094L40 30.1656L55.5906 58.75H47.5Z" fill="#FF6E4E"/>
</svg>
