<svg width="50" height="50" viewBox="0 0 50 50" fill="none" xmlns="http://www.w3.org/2000/svg">
<path d="M23.2076 8.43383C16.0819 9.40521 10.5365 14.5882 9.18091 21.5398C8.50669 25.0265 9.00683 28.5785 10.6378 31.8622L11.225 33.0291L9.76809 37.328C8.96331 39.6839 8.32547 41.6338 8.34009 41.6484C8.35471 41.663 10.3842 41.0395 12.8417 40.2565L17.3215 38.8285L18.177 39.2344C21.6783 40.8725 25.5638 41.2714 29.2606 40.3581C34.9366 38.9519 39.5035 34.5445 41.0767 28.9484C41.7363 26.5854 41.8451 23.7726 41.3595 21.3732C40.2433 15.8713 36.3143 11.297 30.9936 9.31817C30.1888 9.01353 28.8768 8.67285 27.8836 8.49911C26.9337 8.33965 24.1861 8.29613 23.2076 8.43383ZM27.2672 11.0505C32.6096 11.7753 37.1476 15.755 38.5756 20.9744C39.1846 23.2 39.2135 25.6861 38.6552 27.89C37.5097 32.3987 34.0958 36.0595 29.6591 37.531C25.8678 38.7924 21.6633 38.3572 18.2926 36.3495C17.9808 36.1683 17.6983 36.016 17.669 36.016C17.6473 36.016 16.4583 36.3859 15.0303 36.8425C13.6094 37.292 12.4425 37.6398 12.4425 37.6038C12.4425 37.5749 12.8196 36.4366 13.2834 35.081L14.1242 32.6163L13.7471 32.0509C13.2759 31.3406 12.5146 29.7964 12.2321 28.9773C10.0217 22.5693 12.943 15.4796 19.0756 12.3771C21.6055 11.1015 24.3531 10.6591 27.2672 11.0505Z" fill="#FF6E4E"/>
<path d="M19.1267 17.3211C18.5542 17.6037 17.764 18.7056 17.474 19.6263C17.4158 19.8075 17.3434 20.2859 17.3217 20.6847C17.271 21.6126 17.4522 22.4174 17.9524 23.4612C18.3219 24.2296 19.1774 25.5199 20.0257 26.5783C21.5118 28.4412 23.3458 29.9637 25.0856 30.7974C26.4411 31.4427 28.5287 32.1312 29.4131 32.2254C30.6238 32.3488 32.4649 31.544 33.1102 30.6015C33.5308 29.9926 33.7627 28.4993 33.4798 28.2385C33.335 28.108 30.5874 26.767 30.0438 26.5569C29.8554 26.4845 29.6232 26.4481 29.529 26.4773C29.4202 26.4991 29.1377 26.7891 28.8184 27.1876C28.0357 28.1726 27.6515 28.5496 27.4411 28.5496C27.1585 28.5496 25.752 27.8683 24.9621 27.3464C23.9544 26.6793 22.6569 25.3747 21.9538 24.3234C21.6638 23.8957 21.4319 23.4608 21.4319 23.3667C21.4319 23.265 21.6203 22.9825 21.9392 22.6129C22.403 22.0692 22.8089 21.4242 22.8089 21.2209C22.8089 21.1774 22.4754 20.3366 22.0694 19.3506C21.591 18.2051 21.2575 17.4949 21.1344 17.3643C20.9461 17.1759 20.9097 17.1685 20.1848 17.1685C19.5687 17.1688 19.3804 17.1977 19.1267 17.3211Z" fill="#FF6E4E"/>
</svg>
