<svg width="50" height="50" viewBox="0 0 50 50" xmlns="http://www.w3.org/2000/svg">
<rect width="50" height="50" />
<path d="M34.3583 13.1137C32.9935 11.6012 30.6108 10.8334 27.2813 10.8334H18.9353C17.8779 10.8334 16.9931 11.5637 16.8281 12.5709L13.3524 33.9995C13.2793 34.462 13.4199 34.9298 13.7387 35.2834C14.0517 35.6334 14.5091 35.8334 14.9891 35.8334H20.9449L22.3228 27.3298C22.3509 27.2101 22.4541 27.1245 22.5703 27.1245H25.0186C30.9688 27.1245 34.5364 24.3923 35.6143 19.0066L35.7099 18.4905C36.0662 16.1637 35.6631 14.5566 34.3583 13.1137ZM33.8578 18.212L33.7734 18.6673C32.8754 23.1548 30.0128 25.337 25.0205 25.337H22.5722C21.6067 25.337 20.7837 25.9495 20.525 26.8245L20.51 26.8209L20.4707 27.0655C20.4688 27.0673 20.4688 27.0691 20.4688 27.0726L19.3383 34.0476H15.2422L18.6803 12.8441C18.7009 12.7137 18.8078 12.6191 18.9353 12.6191H27.2795C30.039 12.6191 31.9438 13.1762 32.9392 14.278C33.8765 15.3155 34.1315 16.4245 33.8578 18.212Z" fill="#FF6E4E"/>
<path d="M37.9843 16.7961C37.2661 15.9721 36.2526 15.3577 34.9711 14.9731L34.4479 16.7195C35.394 17.0038 36.1213 17.4322 36.6062 17.9901C37.5086 19.0401 37.7637 20.2067 37.494 22.0023C37.494 22.0023 37.4447 22.2958 37.4046 22.4762C36.5406 27.0554 33.7588 29.2812 28.8953 29.2812H26.5255C25.5046 29.2812 24.6424 30.025 24.4766 31.0567L23.3755 38.1771H19.387L19.788 35.5812L17.987 35.3041L17.5458 38.1551C17.4875 38.6291 17.6333 39.1031 17.9451 39.4567C18.2513 39.8031 18.687 40 19.1426 40H24.9377L26.2757 31.3411C26.2958 31.2226 26.387 31.1041 26.5255 31.1041H28.8953C34.694 31.1041 38.1593 28.3151 39.1875 22.8481C39.2294 22.6676 39.2914 22.3049 39.2932 22.2885C39.6451 19.9533 39.2421 18.2616 37.9843 16.7961Z" fill="#FF6E4E"/>
</svg>
