<svg width="80" height="80" viewBox="0 0 80 80" fill="none" xmlns="http://www.w3.org/2000/svg">
<path d="M56 36.7059C57.104 36.7059 58 35.8362 58 34.7647V32.8235C58 29.6128 55.308 27 52 27H28C24.692 27 22 29.6128 22 32.8235V34.7647C22 35.8362 22.896 36.7059 24 36.7059H38V58.0588C38 59.1304 38.896 60 40 60C41.104 60 42 59.1304 42 58.0588V36.7059H56ZM28 30.8824H52C53.102 30.8824 54 31.7539 54 32.8235H26C26 31.7539 26.898 30.8824 28 30.8824Z" fill="#FF6E4E"/>
<path d="M25.2308 40H13.6923V26C13.6923 22.692 11.1038 20 7.92308 20C6.86154 20 6 20.896 6 22C6 23.104 6.86154 24 7.92308 24C8.98269 24 9.84615 24.898 9.84615 26V58C9.84615 59.104 10.7077 60 11.7692 60C12.8308 60 13.6923 59.104 13.6923 58V52H27.1538V58C27.1538 59.104 28.0154 60 29.0769 60C30.1385 60 31 59.104 31 58V46C31 42.692 28.4115 40 25.2308 40ZM13.6923 48V44H25.2308C26.2904 44 27.1538 44.898 27.1538 46V48H13.6923Z" fill="#FF6E4E"/>
<path d="M73 20C69.692 20 67 22.692 67 26V40H55C51.692 40 49 42.692 49 46V58C49 59.104 49.896 60 51 60C52.104 60 53 59.104 53 58V52H67V58C67 59.104 67.896 60 69 60C70.104 60 71 59.104 71 58V26C71 24.898 71.898 24 73 24C74.104 24 75 23.104 75 22C75 20.896 74.104 20 73 20ZM53 48V46C53 44.898 53.898 44 55 44H67V48H53Z" fill="#FF6E4E"/>
</svg>
