<svg width="120" height="120" viewBox="0 0 120 120" fill="none" xmlns="http://www.w3.org/2000/svg">
<path d="M102.049 24.3256C90.5684 12.7799 71.6206 13.3538 60.6896 25.3552C49.7578 13.3542 30.8109 12.7797 19.3299 24.3258C7.91314 35.6955 8.30207 54.4178 20.0653 65.3915C14.0472 71.1392 17.4949 81.4676 25.6862 82.4745C25.1955 88.0835 29.9695 93.227 35.6165 93.1317C35.9628 99.3063 42.1602 103.726 48.1018 102.094C50.0511 109.451 59.4217 111.964 64.7977 106.55C67.8509 103.515 70.279 101.601 70.4339 97.0048C75.4789 96.8642 79.844 92.4398 79.9209 87.3978C85.0144 87.3192 89.4521 82.88 89.5305 77.788C94.8145 77.7077 99.396 72.9386 99.1501 67.5547L102.049 64.6562C113.168 53.5369 113.168 35.4446 102.049 24.3256ZM24.4362 70.0326L27.1589 67.3098C27.8626 66.6061 28.7866 66.2543 29.711 66.2543C32.8807 66.2333 34.5351 70.1521 32.2627 72.4137L29.54 75.1364C26.0157 78.381 21.1911 73.5584 24.4362 70.0326ZM32.028 83.1555C32.028 82.1913 32.4036 81.2849 33.0852 80.6033L35.8094 77.8793C36.4908 77.1985 37.3966 76.8236 38.3599 76.8236C41.5565 76.8181 43.1768 80.7278 40.9118 82.9847L38.5094 85.3871C37.7751 86.2193 36.7663 86.7824 35.6369 86.7644C33.6974 86.8043 31.9879 85.0954 32.028 83.1555ZM43.0153 94.9967C41.6153 93.6534 41.6153 91.2363 43.0153 89.893L45.4177 87.4904C46.8184 85.8276 49.2773 85.6112 50.8421 87.1701C52.2492 88.5773 52.2492 90.8665 50.8421 92.2739L48.1192 94.9969C46.7122 96.4045 44.4226 96.4043 43.0153 94.9967ZM63.0147 99.3216L60.292 102.044C59.6104 102.726 58.704 103.102 57.7401 103.102C56.7759 103.102 55.8695 102.726 55.1879 102.044C53.7881 100.701 53.7875 98.2838 55.1881 96.9405L57.9106 94.2177C59.3176 92.8105 61.6075 92.8105 63.0145 94.2175C64.4147 95.561 64.4149 97.9781 63.0147 99.3216ZM91.7243 70.3718C90.3808 71.7718 87.9637 71.772 86.6204 70.3718L72.4403 56.1917L67.9344 60.6976L82.1145 74.8777C83.5215 76.2849 83.5215 78.5743 82.1145 79.9816C80.7073 81.3892 78.4179 81.3888 77.0106 79.9816L63.071 66.0419L62.8305 65.8015L58.3246 70.3074L58.5651 70.5479L72.5047 84.4875C73.9119 85.8947 73.9119 88.1843 72.5047 89.5916C71.0975 90.9988 68.8079 90.9988 67.4006 89.5916L67.3979 89.5943C64.8088 87.0913 61.1903 86.2671 57.9221 87.1219C56.8817 82.8706 52.6081 79.6521 48.3106 79.7458C48.1022 75.17 44.2337 71.0364 39.6622 70.5426C40.2654 62.6917 31.6431 57.2852 24.8387 61.1526C15.3621 52.6875 14.7783 37.8273 23.8363 28.8315C32.8422 19.7625 47.7226 20.3635 56.1841 29.8611L48.3066 37.7387L54.6188 44.051C59.4676 48.9002 66.9395 49.5674 72.5104 46.0532L91.7249 65.2679C93.1313 66.6749 93.1313 68.9645 91.7243 70.3718ZM97.5434 60.1502L96.5724 61.1209C96.4618 60.999 96.3477 60.8792 96.2304 60.762L72.7609 37.2922L70.5078 39.545C67.3696 42.6832 62.2632 42.6837 59.1243 39.545L57.318 37.7387L66.2251 28.8315C87.8618 8.91713 117.454 38.5276 97.5434 60.1502Z" fill="#FF6E4E"/>
</svg>
