<svg width="80" height="80" viewBox="0 0 80 80" fill="none" xmlns="http://www.w3.org/2000/svg">
<path d="M39.75 29C43.8863 29 47.25 25.6363 47.25 21.5C47.25 17.3637 43.8863 14 39.75 14C35.6137 14 32.25 17.3637 32.25 21.5C32.25 25.6363 35.6137 29 39.75 29ZM39.75 17.75C41.8181 17.75 43.5 19.4319 43.5 21.5C43.5 23.5681 41.8181 25.25 39.75 25.25C37.6819 25.25 36 23.5681 36 21.5C36 19.4319 37.6819 17.75 39.75 17.75Z" fill="#FF6E4E"/>
<path d="M56.625 17.75C55.59 17.75 54.75 18.59 54.75 19.625C54.75 25.8294 48.9675 30.875 41.8594 30.875H37.6406C30.5325 30.875 24.75 25.8294 24.75 19.625C24.75 18.59 23.91 17.75 22.875 17.75C21.84 17.75 21 18.59 21 19.625C21 26.1931 25.7156 31.7769 32.25 33.8019V49.3944L28.5562 64.1712C28.305 65.1763 28.9163 66.1944 29.9213 66.4456C30.9113 66.695 31.9406 66.0969 32.1956 65.0806L35.5894 51.5H43.9106L47.3063 65.0806C47.5613 66.0969 48.5906 66.6931 49.5806 66.4456C50.5856 66.1944 51.195 65.1763 50.9456 64.1712L47.25 49.3925V33.8C53.7844 31.775 58.5 26.1912 58.5 19.6231C58.5 18.59 57.66 17.75 56.625 17.75ZM43.5 47.75H36V34.55C37.3444 34.67 42.1556 34.67 43.5 34.55V47.75Z" fill="#FF6E4E"/>
</svg>
