<svg width="50" height="50" viewBox="0 0 50 50" fill="none" xmlns="http://www.w3.org/2000/svg">
<path d="M37.2559 17.2559C37.5813 16.9305 37.5813 16.4028 37.2559 16.0774L31.9526 10.7741C31.6272 10.4487 31.0996 10.4487 30.7741 10.7741C30.4487 11.0996 30.4487 11.6272 30.7741 11.9526L35.4882 16.6667L30.7741 21.3808C30.4487 21.7062 30.4487 22.2338 30.7741 22.5593C31.0996 22.8847 31.6272 22.8847 31.9526 22.5593L37.2559 17.2559ZM12.5 17.5H36.6667V15.8333H12.5V17.5Z" fill="#FF6E4E"/>
<path d="M11.9106 31.9108C11.5851 32.2362 11.5851 32.7639 11.9106 33.0893L17.2139 38.3926C17.5393 38.718 18.0669 38.718 18.3924 38.3926C18.7178 38.0671 18.7178 37.5395 18.3924 37.2141L13.6783 32.5L18.3924 27.786C18.7178 27.4606 18.7178 26.933 18.3924 26.6075C18.0669 26.282 17.5393 26.282 17.2139 26.6075L11.9106 31.9108ZM36.6665 31.6667H12.4998V33.3334H36.6665V31.6667Z" fill="#FF6E4E"/>
</svg>
