<svg width="46" height="58" viewBox="0 0 46 58" fill="none" xmlns="http://www.w3.org/2000/svg">
<path d="M40.3705 13.3631C44.0484 10.827 46.0472 7.22998 45.9992 3.23725C45.9887 2.38774 45.4576 1.63146 44.6568 1.32688C38.61 -0.970961 31.501 -0.24162 26.5394 3.18338C24.3816 4.67107 22.8197 6.53172 21.8914 8.61615C20.4821 7.22791 18.709 6.09039 16.6474 5.3051C11.4934 3.34293 5.48844 3.86921 0.978427 6.68091C0.192258 7.1699 -0.173645 8.11472 0.0793509 8.99946C1.15406 12.7581 4.20256 15.8412 8.44285 17.4553C12.2775 18.916 16.6516 19.0756 20.9086 17.5692V31.0641H4.18374C3.02958 31.0641 2.09286 31.9903 2.09286 33.1361V41.4241C2.09286 42.5699 3.02958 43.4961 4.18374 43.4961H6.5527L8.3864 56.2222C8.53485 57.2417 9.41511 58 10.4564 58H35.5469C36.5881 58 37.4684 57.2417 37.6168 56.2222L39.4505 43.4961H41.8195C42.9737 43.4961 43.9104 42.5699 43.9104 41.4241V33.1361C43.9104 31.9903 42.9737 31.0641 41.8195 31.0641H25.0925V16.0401C30.8006 17.2916 36.4083 16.096 40.3705 13.3631ZM28.9313 6.58352C32.4001 4.19244 37.2656 3.51076 41.6899 4.71666C41.2968 6.73271 40.0151 8.55813 37.9827 9.96294C34.5161 12.3561 29.6548 13.0398 25.2242 11.8298C25.6173 9.81169 26.8969 7.98626 28.9313 6.58352ZM9.9441 13.5869C7.57514 12.6855 5.7498 11.1978 4.73782 9.38278C7.91804 7.98626 11.7653 7.88473 15.1504 9.17351C17.5193 10.0748 19.3447 11.5646 20.3587 13.3776C17.1764 14.7762 13.3313 14.8777 9.9441 13.5869ZM33.7341 53.856H12.2692L10.7763 43.4961H35.227L33.7341 53.856ZM39.7286 35.2081V39.3521C27.451 39.3521 18.707 39.3521 6.27461 39.3521V35.2081H39.7286Z" fill="#FF6E4E"/>
</svg>
