<svg width="30" height="30" viewBox="0 0 30 30" fill="none" xmlns="http://www.w3.org/2000/svg">
<path d="M24 3H6C4.34546 3 3 4.34546 3 6V24C3 25.6545 4.34546 27 6 27H24C25.6545 27 27 25.6545 27 24V6C27 4.34546 25.6545 3 24 3ZM6 5H24C24.5515 5 25 5.44849 25 6V13.0859L21.707 9.79297C21.3164 9.40259 20.6836 9.40259 20.293 9.79297L13.25 16.8359L10.707 14.293C10.3164 13.9026 9.68359 13.9026 9.29297 14.293L5 18.5859V6C5 5.44849 5.44849 5 6 5ZM24 25H6C5.44849 25 5 24.5515 5 24V21.4141L10 16.4141L15.793 22.2065C15.9885 22.4026 16.2439 22.5 16.5 22.5C16.7561 22.5 17.0115 22.4026 17.207 22.207C17.5974 21.8164 17.5974 21.1836 17.207 20.793L14.6641 18.25L21 11.9146L25 15.9146V24C25 24.5515 24.5515 25 24 25Z" fill="#FF6E4E"/>
<path d="M11 9C11 10.1045 10.1045 11 9 11C7.89551 11 7 10.1045 7 9C7 7.89551 7.89551 7 9 7C10.1045 7 11 7.89551 11 9Z" fill="#FF6E4E"/>
</svg>
