<svg width="40" height="40" viewBox="0 0 40 40" fill="none" xmlns="http://www.w3.org/2000/svg">
<path fill-rule="evenodd" clip-rule="evenodd" d="M40 20C40 31.0457 31.0457 40 20 40C8.9543 40 0 31.0457 0 20C0 8.9543 8.9543 0 20 0C31.0457 0 40 8.9543 40 20ZM29.5692 10.3653C29.2153 10.0256 28.7123 9.91239 28.2563 10.0698L8.91228 16.7495C8.3851 16.9316 8.0276 17.4245 8.00151 18.0053C7.97547 18.5861 8.28721 19.1121 8.79571 19.3452L12.6803 21.1256L24.1173 14.4764C24.3966 14.314 24.7472 14.3899 24.9423 14.6547C25.1374 14.9196 25.1185 15.294 24.8977 15.5358L17.7676 23.3455L16.3053 28.8799L19.8151 26.1269L23.9654 29.6846C24.2071 29.8919 24.5026 30 24.8038 30C24.9472 30 25.092 29.9755 25.2329 29.9254C25.6697 29.7703 25.9935 29.3968 26.0991 28.9265L29.9648 11.7095C30.0747 11.2201 29.9232 10.705 29.5692 10.3653ZM15.2833 29L14 22.3443L21 18L16.8938 22.8011C16.8234 22.8834 16.7723 22.9841 16.7451 23.094L15.2833 29Z" fill="#2D9CDB"/>
</svg>
