<svg width="60" height="60" viewBox="0 0 60 60" fill="none" xmlns="http://www.w3.org/2000/svg">
<rect width="60" height="60" fill="white"/>
<path d="M44.7071 20.7071C45.0976 20.3166 45.0976 19.6834 44.7071 19.2929L38.3431 12.9289C37.9526 12.5384 37.3195 12.5384 36.9289 12.9289C36.5384 13.3195 36.5384 13.9526 36.9289 14.3431L42.5858 20L36.9289 25.6569C36.5384 26.0474 36.5384 26.6805 36.9289 27.0711C37.3195 27.4616 37.9526 27.4616 38.3431 27.0711L44.7071 20.7071ZM15 21H44V19H15V21Z" fill="#FF6E4E"/>
<path d="M14.2929 38.2929C13.9024 38.6834 13.9024 39.3166 14.2929 39.7071L20.6569 46.0711C21.0474 46.4616 21.6805 46.4616 22.0711 46.0711C22.4616 45.6805 22.4616 45.0474 22.0711 44.6569L16.4142 39L22.0711 33.3431C22.4616 32.9526 22.4616 32.3195 22.0711 31.9289C21.6805 31.5384 21.0474 31.5384 20.6569 31.9289L14.2929 38.2929ZM44 38L15 38L15 40L44 40L44 38Z" fill="#FF6E4E"/>
</svg>
