<?xml version="1.0" encoding="UTF-8"?>
<svg width="225px" height="225px" viewBox="0 0 225 225" version="1.1" xmlns="http://www.w3.org/2000/svg" xmlns:xlink="http://www.w3.org/1999/xlink">
    <title>9</title>
    <g id="Page-1" stroke="none" stroke-width="1" fill="none" fill-rule="evenodd">
        <g id="Chellenge" transform="translate(-559.000000, -290.000000)">
            <g id="9" transform="translate(559.000000, 290.000000)">
                <path d="M140.304002,220.665 C143.004002,219.963 144.478002,217.106 143.616002,214.453 L123.002002,151.011 C122.161002,148.423 119.406002,147.02 116.719002,147.449 C114.826002,147.752 112.884002,147.91 110.905002,147.91 C109.450002,147.91 108.016002,147.825 106.605002,147.659 C103.996002,147.353 101.390002,148.76 100.578002,151.258 L80.0751018,214.36 C79.2151018,217.006 80.6793018,219.857 83.3704018,220.567 C92.5170018,222.977 102.121002,224.261 112.025002,224.261 C121.793002,224.261 131.270002,223.012 140.304002,220.665 Z" id="Path" fill="#FF6E4E"></path>
                <path d="M147.404002,213.169 C148.270002,215.835 151.165002,217.278 153.767002,216.234 C171.739002,209.021 187.411002,197.288 199.376002,182.443 C201.116002,180.285 200.618002,177.134 198.376002,175.505 L144.176002,136.127 C141.963002,134.519 138.892002,135.017 136.976002,136.968 C134.710002,139.277 132.139002,141.286 129.329002,142.93 C127.095002,144.237 125.863002,146.871 126.662002,149.332 L147.404002,213.169 Z" id="Path" fill="#FF6E4E"></path>
                <path d="M200.585002,172.165 C202.866002,173.823 206.077002,173.272 207.557002,170.871 C217.260002,155.124 223.179002,136.796 224.045002,117.155 C224.166002,114.396 221.916002,112.154 219.154002,112.154 L152.326002,112.154 C149.605002,112.154 147.420002,114.34 147.002002,117.029 C146.523002,120.113 145.659002,123.07 144.459002,125.847 C143.438002,128.212 143.994002,131.05 146.078002,132.564 L200.585002,172.165 Z" id="Path" fill="#FF6E4E"></path>
                <path d="M218.909002,108.154 C221.738002,108.154 224.015002,105.806 223.788002,102.985 C222.233002,83.7293 215.814002,65.8476 205.761002,50.5703 C204.241002,48.2607 201.100002,47.768 198.863002,49.3932 L145.230002,88.3599 C143.061002,89.9355 142.557002,92.9282 143.735002,95.3356 C145.010002,97.94 145.985002,100.719 146.613002,103.627 C147.160002,106.161 149.286002,108.154 151.878002,108.154 L218.909002,108.154 Z" id="Path" fill="#FF6E4E"></path>
                <path d="M196.328002,46.2908 C198.615002,44.6288 199.078002,41.3941 197.240002,39.246 C185.299002,25.298 169.993002,14.3162 152.579002,7.5584 C149.986002,6.55182 147.126002,7.9975 146.266002,10.6436 L125.992002,73.0408 C125.180002,75.5401 126.464002,78.2105 128.755002,79.4964 C131.285002,80.916 133.629002,82.628 135.741002,84.5866 C137.670002,86.3754 140.609002,86.7728 142.737002,85.2266 L196.328002,46.2908 Z" id="Path" fill="#FF6E4E"></path>
                <path d="M142.430002,9.5067 C143.299002,6.83328 141.796002,3.9582 139.067002,3.28254 C130.406002,1.13795 121.348002,0 112.025002,0 C102.566002,0 93.3810018,1.17113 84.6066018,3.37629 C81.8867018,4.05984 80.3927018,6.92933 81.2594018,9.5966 L101.345002,71.4132 C102.144002,73.8736 104.688002,75.2799 107.263002,75.0251 C108.461002,74.9065 109.676002,74.8458 110.905002,74.8458 C112.659002,74.8458 114.384002,74.9694 116.072002,75.2084 C118.726002,75.5841 121.417002,74.1791 122.245002,71.6296 L142.430002,9.5067 Z" id="Path" fill="#FF6E4E"></path>
                <path d="M77.4375018,10.7783 C76.5757018,8.1261 73.7056018,6.68109 71.1093018,7.6991 C53.7700018,14.4977 38.5357018,25.49 26.6545018,39.4279 C24.8227018,41.5768 25.2884018,44.8054 27.5729018,46.4651 L79.8959018,84.48 C81.9778018,85.9926 84.8453018,85.6472 86.7769018,83.9468 C89.0801018,81.9194 91.6406018,80.1775 94.4030018,78.7764 C96.8310018,77.5452 98.2360018,74.7899 97.3950018,72.2012 L77.4375018,10.7783 Z" id="Path" fill="#FF6E4E"></path>
                <path d="M25.0609018,49.5844 C22.8210018,47.9569 19.6749018,48.4537 18.1578018,50.7698 C8.1794018,66.0033 1.8093118,83.8131 0.261751804,102.985 C0.0340818037,105.806 2.3110018,108.154 5.1407018,108.154 L69.9313018,108.154 C72.5240018,108.154 74.6495018,106.161 75.1970018,103.626 C75.8933018,100.403 77.0150018,97.339 78.5003018,94.4937 C79.7676018,92.0664 79.2941018,88.9871 77.0788018,87.3776 L25.0609018,49.5844 Z" id="Path" fill="#C4C4C4"></path>
                <path d="M4.8952018,112.154 C2.1334018,112.154 -0.116948196,114.396 0.00471180371,117.155 C0.867031804,136.711 6.7385018,154.966 16.3675018,170.667 C17.8441018,173.075 21.0597018,173.63 23.3448018,171.97 L76.1883018,133.577 C78.3186018,132.029 78.8470018,129.107 77.7400018,126.718 C76.3372018,123.69 75.3368018,120.437 74.8075018,117.029 C74.3900018,114.341 72.2051018,112.154 69.4843018,112.154 L4.8952018,112.154 Z" id="Path" fill="#FF6E4E"></path>
                <path d="M24.5235018,182.257 C22.7911018,180.098 23.2911018,176.953 25.5304018,175.327 L78.4149018,136.904 C80.5810018,135.33 83.5797018,135.772 85.5038018,137.633 C87.9677018,140.018 90.7663018,142.058 93.8220018,143.678 C96.1910018,144.933 97.5440018,147.652 96.7150018,150.203 L76.3013018,213.03 C75.4329018,215.702 72.5278018,217.145 69.9234018,216.089 C52.0262018,208.834 36.4277018,197.091 24.5235018,182.257 Z" id="Path" fill="#FF6E4E"></path>
            </g>
        </g>
    </g>
</svg>