<svg width="449" height="128" viewBox="0 0 449 128" fill="none" xmlns="http://www.w3.org/2000/svg">
<mask id="mask0_452_8892" style="mask-type:alpha" maskUnits="userSpaceOnUse" x="0" y="0" width="449" height="128">
<path d="M0.000305176 5.91827C46.9175 -2.31196 368.301 -1.6261 448.842 5.91828V128H0.000305176V5.91827Z" fill="white"/>
</mask>
<g mask="url(#mask0_452_8892)">
<g filter="url(#filter0_d_452_8892)">
<path fill-rule="evenodd" clip-rule="evenodd" d="M32.2975 -13.2853C19.1502 -13.2853 7.85529 -22.8744 6.73151 -35.9736C5.89795 -45.69 5.47363 -55.5066 5.47363 -65.4101C5.47363 -175.917 58.3057 -275.601 143.024 -346.091C154.708 -355.813 172.042 -352.618 180.399 -339.922L368.238 -54.5595C379.895 -36.8515 367.194 -13.2853 345.994 -13.2853H32.2975ZM24.2193 46.5218C18.6213 30.2529 31.3315 14.1488 48.5366 14.1488H399.532C414.241 14.1488 426.164 26.0722 426.164 40.7804V93.1385C426.164 107.847 414.241 119.77 399.533 119.77H73.9861C64.7891 119.77 56.1795 115.06 51.6318 107.066C40.6425 87.7486 31.4416 67.5116 24.2193 46.5218ZM112.826 187.541C97.4075 171.908 109.379 147.204 131.336 147.204H761.655C783.613 147.204 795.584 171.908 780.165 187.541C699.296 269.534 579.803 321.411 446.496 321.411C313.188 321.411 193.695 269.534 112.826 187.541ZM841.359 107.066C836.812 115.06 828.202 119.77 819.005 119.77H493.457C478.749 119.77 466.826 107.847 466.826 93.1385V32.5671C466.826 30.6978 468.798 29.4861 470.465 30.3305C471.603 30.9064 472.991 30.5372 473.692 29.4724L479.518 20.6216C482.177 16.5812 486.691 14.1488 491.528 14.1488H844.455C861.66 14.1488 874.37 30.2529 868.772 46.5219C861.55 67.5116 852.349 87.7486 841.359 107.066ZM860.694 -13.2853C873.841 -13.2853 885.136 -22.8743 886.26 -35.9736C887.093 -45.69 887.518 -55.5066 887.518 -65.4101C887.518 -174.651 835.889 -273.316 752.867 -343.657C741.204 -353.537 723.738 -350.393 715.333 -337.625L529.006 -54.5595C517.349 -36.8515 530.051 -13.2853 551.251 -13.2853H860.694ZM682.787 -392.083C695.755 -384.852 699.275 -368.098 691.111 -355.696L473.612 -25.2742C468.686 -17.7904 460.327 -13.2853 451.367 -13.2853H445.877C436.918 -13.2853 428.558 -17.7905 423.632 -25.2742L205 -357.417C196.791 -369.889 200.403 -386.742 213.504 -393.905C281.111 -430.873 360.96 -452.231 446.496 -452.231C533.427 -452.231 614.484 -430.17 682.787 -392.083Z" fill="white"/>
</g>
</g>
<defs>
<filter id="filter0_d_452_8892" x="-2.51584" y="-454.894" width="898.023" height="789.621" filterUnits="userSpaceOnUse" color-interpolation-filters="sRGB">
<feFlood flood-opacity="0" result="BackgroundImageFix"/>
<feColorMatrix in="SourceAlpha" type="matrix" values="0 0 0 0 0 0 0 0 0 0 0 0 0 0 0 0 0 0 127 0" result="hardAlpha"/>
<feOffset dy="5.32632"/>
<feGaussianBlur stdDeviation="3.99474"/>
<feComposite in2="hardAlpha" operator="out"/>
<feColorMatrix type="matrix" values="0 0 0 0 0 0 0 0 0 0 0 0 0 0 0 0 0 0 0.1 0"/>
<feBlend mode="normal" in2="BackgroundImageFix" result="effect1_dropShadow_452_8892"/>
<feBlend mode="normal" in="SourceGraphic" in2="effect1_dropShadow_452_8892" result="shape"/>
</filter>
</defs>
</svg>
