<svg width="449" height="128" viewBox="0 0 449 128" fill="none" xmlns="http://www.w3.org/2000/svg">
<mask id="mask0_448_8217" style="mask-type:alpha" maskUnits="userSpaceOnUse" x="0" y="0" width="449" height="128">
<path d="M448.841 5.91827C401.924 -2.31196 80.5412 -1.6261 0 5.91828V128H448.841V5.91827Z" fill="white"/>
</mask>
<g mask="url(#mask0_448_8217)">
<g filter="url(#filter0_d_448_8217)">
<path fill-rule="evenodd" clip-rule="evenodd" d="M416.544 -13.2852C429.692 -13.2852 440.987 -22.8743 442.11 -35.9735C442.944 -45.69 443.368 -55.5066 443.368 -65.4101C443.368 -175.917 390.536 -275.602 305.818 -346.091C294.134 -355.813 276.799 -352.618 268.443 -339.922L80.6034 -54.5595C68.9471 -36.8515 81.6483 -13.2852 102.848 -13.2852H416.544ZM424.622 46.5219C430.22 30.2529 417.51 14.1489 400.305 14.1489H49.3093C34.6011 14.1489 22.6777 26.0722 22.6777 40.7804V93.1385C22.6777 107.847 34.6011 119.77 49.3093 119.77H374.856C384.053 119.77 392.662 115.06 397.21 107.066C408.199 87.7486 417.4 67.5116 424.622 46.5219ZM336.015 187.541C351.434 171.908 339.463 147.204 317.505 147.204H-312.813C-334.771 147.204 -346.742 171.908 -331.323 187.541C-250.454 269.534 -130.961 321.411 2.34619 321.411C135.654 321.411 255.147 269.534 336.015 187.541ZM-392.518 107.066C-387.97 115.06 -379.36 119.77 -370.163 119.77H-44.6155C-29.9073 119.77 -17.9839 107.847 -17.9839 93.1385V32.5671C-17.9839 30.6978 -19.9559 29.486 -21.6235 30.3305C-22.7608 30.9064 -24.1492 30.5371 -24.8501 29.4723L-30.676 20.6216C-33.3357 16.5812 -37.8487 14.1489 -42.686 14.1489H-395.613C-412.818 14.1489 -425.528 30.2529 -419.93 46.5219C-412.708 67.5116 -403.507 87.7486 -392.518 107.066ZM-411.852 -13.2852C-424.999 -13.2852 -436.294 -22.8743 -437.418 -35.9735C-438.251 -45.69 -438.676 -55.5066 -438.676 -65.4101C-438.676 -174.651 -387.048 -273.316 -304.025 -343.657C-292.363 -353.537 -274.896 -350.393 -266.492 -337.625L-80.1639 -54.5595C-68.5077 -36.8515 -81.2088 -13.2852 -102.409 -13.2852H-411.852ZM-233.945 -392.083C-246.913 -384.852 -250.433 -368.098 -242.269 -355.696L-24.77 -25.2742C-19.8438 -17.7904 -11.4847 -13.2852 -2.52515 -13.2852H2.96466C11.9243 -13.2852 20.2834 -17.7904 25.2095 -25.2742L243.842 -357.417C252.051 -369.889 248.439 -386.742 235.338 -393.905C167.731 -430.873 87.8823 -452.231 2.34619 -452.231C-84.5854 -452.231 -165.642 -430.17 -233.945 -392.083Z" fill="white"/>
</g>
</g>
<defs>
<filter id="filter0_d_448_8217" x="-446.665" y="-454.894" width="898.023" height="789.621" filterUnits="userSpaceOnUse" color-interpolation-filters="sRGB">
<feFlood flood-opacity="0" result="BackgroundImageFix"/>
<feColorMatrix in="SourceAlpha" type="matrix" values="0 0 0 0 0 0 0 0 0 0 0 0 0 0 0 0 0 0 127 0" result="hardAlpha"/>
<feOffset dy="5.32632"/>
<feGaussianBlur stdDeviation="3.99474"/>
<feComposite in2="hardAlpha" operator="out"/>
<feColorMatrix type="matrix" values="0 0 0 0 0 0 0 0 0 0 0 0 0 0 0 0 0 0 0.1 0"/>
<feBlend mode="normal" in2="BackgroundImageFix" result="effect1_dropShadow_448_8217"/>
<feBlend mode="normal" in="SourceGraphic" in2="effect1_dropShadow_448_8217" result="shape"/>
</filter>
</defs>
</svg>
