<svg width="30" height="30" viewBox="0 0 30 30" fill="none" xmlns="http://www.w3.org/2000/svg">
<path d="M28.8462 13.725H20.7692C18.2377 13.725 16.1538 15.8245 16.1538 18.375C16.1538 20.9255 18.2377 23.025 20.7692 23.025H25.3846V26.5125C25.3846 27.1507 24.8642 27.675 24.2308 27.675H5.76923C3.87 27.675 2.30769 26.101 2.30769 24.1875V6.75C2.30769 4.83652 3.87 3.2625 5.76923 3.2625H8.07692C8.71038 3.2625 9.23077 2.73821 9.23077 2.1C9.23077 1.46179 8.71038 0.9375 8.07692 0.9375H5.76923C2.60423 0.9375 0 3.56126 0 6.75V24.1875C0 27.3762 2.60423 30 5.76923 30H24.2308C26.13 30 27.6923 28.426 27.6923 26.5125V23.025H28.8462C29.4796 23.025 30 22.5007 30 21.8625V14.8875C30 14.2493 29.4796 13.725 28.8462 13.725ZM27.6923 20.7H20.7692C19.5035 20.7 18.4615 19.6503 18.4615 18.375C18.4615 17.0997 19.5035 16.05 20.7692 16.05H27.6923V20.7Z" fill="white"/>
<path d="M5.47786 5.70212C4.17237 6.25015 4.60403 7.87401 5.89898 7.87401H24.6156C25.2578 7.87401 25.7854 8.38153 25.7854 8.99934V10.1247C25.7854 10.7425 26.313 11.25 26.9552 11.25C27.5974 11.25 28.125 10.7425 28.125 10.1247V8.99934C28.1238 8.1047 27.7542 7.24607 27.0956 6.61364C26.4382 5.98008 25.5456 5.62447 24.6156 5.62335H24.2413L22.1942 0.70565C21.9567 0.137358 21.2782 -0.146226 20.6851 0.0754643L5.47786 5.70212ZM21.7145 5.62335H12.2042L20.4512 2.5737L21.7145 5.62335Z" fill="white"/>
</svg>
