<svg width="60" height="60" viewBox="0 0 60 60" fill="none" xmlns="http://www.w3.org/2000/svg">
<rect width="60" height="60" fill="white"/>
<path d="M41.2298 15.7364C39.592 13.9214 36.7328 13 32.7374 13H22.7221C21.4533 13 20.3915 13.8764 20.1935 15.085L16.0227 40.7993C15.935 41.3543 16.1037 41.9157 16.4862 42.34C16.8618 42.76 17.4107 43 17.9867 43H25.1337L26.7872 32.7957C26.8209 32.6521 26.9447 32.5493 27.0841 32.5493H30.0221C37.1624 32.5493 41.4435 29.2707 42.737 22.8079L42.8517 22.1886C43.2792 19.3964 42.7955 17.4679 41.2298 15.7364ZM40.6291 21.8543L40.5279 22.4007C39.4503 27.7857 36.0151 30.4043 30.0244 30.4043H27.0864C25.9278 30.4043 24.9402 31.1393 24.6298 32.1893L24.6118 32.185L24.5646 32.4786C24.5623 32.4807 24.5623 32.4829 24.5623 32.4871L23.2058 40.8571H18.2904L22.4162 15.4129C22.4409 15.2564 22.5691 15.1429 22.7221 15.1429H32.7352C36.0466 15.1429 38.3322 15.8114 39.5268 17.1336C40.6516 18.3786 40.9576 19.7093 40.6291 21.8543Z" fill="#FF6E4E"/>
<path d="M45.5809 20.1553C44.7191 19.1665 43.5028 18.4293 41.965 17.9678L41.3372 20.0634C42.4725 20.4046 43.3453 20.9187 43.9272 21.5881C45.01 22.8481 45.3163 24.2481 44.9925 26.4028C44.9925 26.4028 44.9334 26.755 44.8853 26.9715C43.8484 32.4665 40.5103 35.1375 34.6741 35.1375H31.8303C30.6053 35.1375 29.5706 36.03 29.3716 37.2681L28.0503 45.8125H23.2641L23.7453 42.6975L21.5841 42.365L21.0547 45.7862C20.9847 46.355 21.1597 46.9237 21.5338 47.3481C21.9013 47.7637 22.4241 48 22.9709 48H29.925L31.5306 37.6093C31.5547 37.4671 31.6641 37.325 31.8303 37.325H34.6741C41.6325 37.325 45.7909 33.9781 47.0247 27.4178C47.075 27.2012 47.1494 26.7659 47.1516 26.7462C47.5738 23.944 47.0903 21.914 45.5809 20.1553Z" fill="#FF6E4E"/>
</svg>
