<svg width="182" height="210" viewBox="0 0 182 210" fill="none" xmlns="http://www.w3.org/2000/svg">
<g clip-path="url(#clip0_23_787)">
<path d="M127.558 96.5394C126.261 98.5422 125.569 100.906 125.569 103.295C125.569 107.264 127.511 111.059 130.716 113.376C133.967 115.724 138.264 116.337 142.037 114.993C145.706 113.686 148.614 110.624 149.736 106.878C150.89 103.028 150.081 98.7527 147.598 95.6003C145.136 92.4763 141.257 90.7084 137.297 90.9044C133.37 91.0973 129.701 93.2271 127.558 96.5394Z" fill="#FF6E4E"/>
<path d="M161.058 145.824C161.082 146.504 161.042 145.144 161.058 145.824V145.824Z" fill="#FF6E4E"/>
<path d="M50.053 54.3961C52.9863 55.9822 56.2955 56.8114 59.6256 56.8114C67.5388 56.8114 74.8944 52.0083 78.1144 44.7431C81.3762 37.3836 79.8996 28.5413 74.446 22.6452C68.9963 16.7521 60.3547 14.6228 52.8114 17.3344C45.3939 20.0005 40.07 26.9883 39.4582 34.8816C38.8408 42.8479 43.0498 50.6083 50.053 54.3961Z" fill="#FF6E4E"/>
<path d="M84.9671 36.9992C88.8296 40.5019 93.918 42.4657 99.1203 42.4657C107.024 42.4657 114.428 37.8812 117.992 30.7914C121.605 23.6047 120.778 14.7273 115.911 8.33556C111.062 1.96567 102.855 -1.15583 95.0213 0.391199C87.3329 1.9095 80.9565 7.80517 78.8006 15.3744C76.6007 23.103 79.0314 31.6155 84.9671 36.9992Z" fill="#FF6E4E"/>
<path d="M153.796 149.468C154.002 151.396 155.731 152.859 157.654 152.748C159.554 152.637 161.086 151.014 161.102 149.103C161.111 148.007 161.096 146.92 161.058 145.824C160.999 143.26 160.483 140.601 159.739 138.152C159.099 136.041 158.274 133.987 157.226 132.046C154.663 127.304 151.002 123.182 146.606 120.081C145.578 119.357 144.49 118.601 143.314 118.143C139.977 116.501 135.974 116.481 132.62 118.089C131.721 118.407 130.892 118.941 130.096 119.458C129.104 120.101 128.154 120.807 127.237 121.554C125.106 123.292 123.173 125.286 121.502 127.474C118.576 131.307 116.412 135.803 115.433 140.545C114.847 143.386 114.656 146.208 114.678 149.103C114.692 151.042 116.268 152.672 118.193 152.752C120.095 152.832 121.779 151.369 121.985 149.469C122.416 145.384 123.385 141.364 125.613 137.86V141.839L117.459 174.936C117.093 176.364 116.852 177.84 119.623 177.84H126.396L127.653 205.475C127.763 207.737 129.679 209.58 131.934 209.578C134.173 209.575 136.072 207.76 136.195 205.514L137.717 177.839H138.173L139.43 205.474C139.54 207.736 141.455 209.58 143.711 209.578C145.949 209.575 147.849 207.759 147.973 205.514L149.494 177.839H156.12C156.845 177.839 157.526 177.516 157.988 176.955C158.451 176.392 158.637 175.659 158.495 174.928L150.211 141.707V137.931C152.461 141.351 153.374 145.457 153.796 149.468Z" fill="#FF6E4E"/>
<path d="M114.979 176.517L117.791 164.281L118.173 156.688C114.665 155.801 112.119 152.64 112.093 148.913C112.064 145.499 112.316 142.158 113.085 138.827C113.853 135.496 115.089 132.339 116.708 129.338C117.667 127.56 118.808 125.87 120.047 124.28C120.199 122.893 120.174 121.501 120.174 120.107C120.174 118.154 120.174 116.199 120.174 114.245C120.174 108.619 120.174 102.993 120.174 97.3677C120.174 93.3394 120.174 89.3114 120.174 85.2831C120.174 85.0721 120.174 84.8616 120.174 84.6506C121.96 88.5225 123.212 92.5766 124.229 96.7138C126.428 91.3263 131.141 88.5984 137.659 87.5161C136.583 83.3116 134.878 78.0728 133.074 74.1173C130.771 69.0689 127.976 64.279 124.488 59.9591C122.21 57.1374 119.663 54.5454 116.904 52.2C115.558 51.0753 114.157 50.0089 112.694 49.0421C111.464 48.23 110.143 47.5105 108.81 46.8737C94.9469 40.2534 83.9403 51.0084 83.6677 51.2511C80.7092 53.8919 77.7512 56.5328 74.7927 59.1745C82.5985 64.7035 89.0508 72.045 93.5743 80.4894C96.47 85.8945 98.4783 91.8442 99.4733 97.8985C100.15 102.014 100.34 106.128 100.306 110.296C100.258 115.969 95.4759 120.701 89.8286 120.652C88.9719 120.645 88.1386 120.534 87.3412 120.329C87.3412 120.329 95.1192 148.842 95.56 150.663C96.1556 153.128 96.36 158.254 90.6798 158.254C84.3333 158.254 81.2506 158.254 81.2506 158.254L80.5292 171.055L81.8275 202.309C82.0016 206.186 85.2749 209.354 89.14 209.357C92.9885 209.361 96.2558 206.233 96.45 202.372L99.0808 150.011L101.255 202.309C101.429 206.185 104.703 209.354 108.568 209.357C112.416 209.36 115.683 206.232 115.877 202.372L117.021 179.628C114.04 179.391 114.979 176.517 114.979 176.517Z" fill="#FF6E4E"/>
<path d="M89.5662 156.005C90.6529 156.005 91.6739 155.522 92.3663 154.68C93.0592 153.836 93.3605 152.874 93.1262 151.643L79.139 100.665V92.5942C81.1648 95.7367 82.5971 99.3633 83.5605 102.967C84.3114 105.776 84.7031 108.615 85.0095 111.5C85.3452 114.645 88.1561 117.039 91.295 116.876C94.4233 116.714 96.9559 114.048 96.9815 110.901C96.9973 108.963 96.9824 107.04 96.8877 105.104C96.7584 102.445 96.3458 99.7848 95.8082 97.1821C94.6857 91.7551 92.6868 86.4918 89.9378 81.6852C87.1871 76.8727 83.712 72.4897 79.7056 68.6727C77.7806 66.8384 75.7258 65.1353 73.5664 63.5866C71.914 62.4015 70.1847 61.221 68.3322 60.3742C68.1671 60.2987 67.9998 60.2323 67.8304 60.1675C62.3624 57.4783 55.8055 57.4448 50.3122 60.0809C48.3607 60.7708 46.5666 62.0177 44.88 63.1951C42.7441 64.6856 40.7183 66.3316 38.8018 68.0969C34.7187 71.8568 31.2371 76.2068 28.3776 80.9666C26.9462 83.3498 25.7225 85.8791 24.6943 88.4629C23.6878 90.9953 22.8076 93.6562 22.2602 96.3305C21.7128 99.0005 21.3134 101.654 21.0545 104.368C20.8501 106.509 20.8945 108.669 20.9102 110.816C20.9111 110.844 20.9111 110.873 20.9111 110.902C20.9346 114.067 23.4971 116.73 26.6394 116.878C29.7668 117.026 32.547 114.626 32.8836 111.5C33.1912 108.615 33.5829 105.775 34.3325 102.968C35.3134 99.2994 36.7909 95.6869 38.8274 92.4784V100.051L24.8001 151.654C24.5902 152.729 24.8675 153.83 25.5587 154.675C26.2512 155.521 27.2734 156.006 28.3631 156.006H40.0387L42.1724 203.275C42.3525 206.97 45.473 209.988 49.1581 209.999C52.8372 210.01 55.9689 207.032 56.1707 203.342L58.7528 156.007H59.3395L61.4724 203.276C61.6524 206.971 64.7738 209.988 68.458 210C72.1371 210.011 75.2697 207.032 75.4715 203.343L78.0536 156.008H89.5662V156.005Z" fill="#FF6E4E"/>
</g>
<defs>
<clipPath id="clip0_23_787">
<rect width="182" height="210" fill="white"/>
</clipPath>
</defs>
</svg>
