<svg width="30" height="30" viewBox="0 0 30 30" fill="none" xmlns="http://www.w3.org/2000/svg">
<path d="M26.25 0H3.75C1.68182 0 0 1.68182 0 3.75V26.25C0 28.3182 1.68182 30 3.75 30H26.25C28.3182 30 30 28.3182 30 26.25V3.75C30 1.68182 28.3182 0 26.25 0ZM3.75 2.5H26.25C26.9394 2.5 27.5 3.06061 27.5 3.75V12.6074L23.3838 8.49121C22.8955 8.00323 22.1045 8.00323 21.6162 8.49121L12.8125 17.2949L9.63379 14.1162C9.14551 13.6282 8.35449 13.6282 7.86621 14.1162L2.5 19.4824V3.75C2.5 3.06061 3.06061 2.5 3.75 2.5ZM26.25 27.5H3.75C3.06061 27.5 2.5 26.9394 2.5 26.25V23.0176L8.75 16.7676L15.9912 24.0082C16.2357 24.2532 16.5549 24.375 16.875 24.375C17.1951 24.375 17.5143 24.2532 17.7588 24.0088C18.2468 23.5205 18.2468 22.7295 17.7588 22.2412L14.5801 19.0625L22.5 11.1432L27.5 16.1432V26.25C27.5 26.9394 26.9394 27.5 26.25 27.5Z" fill="white"/>
</svg>
