<svg width="175" height="175" viewBox="0 0 175 175" fill="none" xmlns="http://www.w3.org/2000/svg">
<rect x="0.5" y="0.5" width="174" height="174" stroke="black"/>
<path d="M42.8363 100V75.86H47.5283V95.886H59.8363V100H42.8363ZM72.4625 100.17C70.6945 100.17 69.0852 99.83 67.6345 99.15C66.2065 98.47 64.9712 97.552 63.9285 96.396C62.9085 95.2173 62.1152 93.9027 61.5485 92.452C60.9819 90.9787 60.6985 89.4713 60.6985 87.93C60.6985 86.3207 60.9932 84.7907 61.5825 83.34C62.1945 81.8667 63.0219 80.5633 64.0645 79.43C65.1299 78.274 66.3765 77.3673 67.8045 76.71C69.2552 76.03 70.8419 75.69 72.5645 75.69C74.3099 75.69 75.8965 76.0413 77.3245 76.744C78.7752 77.4467 80.0105 78.3873 81.0305 79.566C82.0505 80.7447 82.8439 82.0593 83.4105 83.51C83.9772 84.9607 84.2605 86.4567 84.2605 87.998C84.2605 89.5847 83.9659 91.1147 83.3765 92.588C82.7872 94.0387 81.9599 95.342 80.8945 96.498C79.8519 97.6313 78.6052 98.5267 77.1545 99.184C75.7265 99.8413 74.1625 100.17 72.4625 100.17ZM65.4585 87.93C65.4585 88.9727 65.6172 89.9813 65.9345 90.956C66.2519 91.9307 66.7052 92.8033 67.2945 93.574C67.9065 94.322 68.6432 94.9227 69.5045 95.376C70.3885 95.8067 71.3859 96.022 72.4965 96.022C73.6299 96.022 74.6385 95.7953 75.5225 95.342C76.4065 94.866 77.1432 94.2427 77.7325 93.472C78.3219 92.6787 78.7639 91.806 79.0585 90.854C79.3759 89.8793 79.5345 88.9047 79.5345 87.93C79.5345 86.8873 79.3645 85.89 79.0245 84.938C78.7072 83.9633 78.2425 83.102 77.6305 82.354C77.0412 81.5833 76.3045 80.9827 75.4205 80.552C74.5592 80.0987 73.5845 79.872 72.4965 79.872C71.3405 79.872 70.3205 80.11 69.4365 80.586C68.5752 81.0393 67.8499 81.6513 67.2605 82.422C66.6712 83.1927 66.2179 84.054 65.9005 85.006C65.6059 85.958 65.4585 86.9327 65.4585 87.93ZM97.8898 100.17C96.3258 100.17 94.8411 99.8527 93.4358 99.218C92.0531 98.5833 90.8291 97.7107 89.7638 96.6C88.7211 95.4667 87.9051 94.152 87.3158 92.656C86.7264 91.16 86.4318 89.5393 86.4318 87.794C86.4318 86.1393 86.7264 84.5867 87.3158 83.136C87.9051 81.6627 88.7324 80.3707 89.7978 79.26C90.8631 78.1493 92.1098 77.2767 93.5378 76.642C94.9658 76.0073 96.5184 75.69 98.1958 75.69C100.462 75.69 102.4 76.1773 104.01 77.152C105.642 78.104 106.866 79.3733 107.682 80.96L104.18 83.544C103.568 82.3427 102.706 81.4247 101.596 80.79C100.508 80.1553 99.3178 79.838 98.0258 79.838C97.0058 79.838 96.0764 80.0533 95.2378 80.484C94.3991 80.9147 93.6738 81.504 93.0618 82.252C92.4498 83 91.9738 83.8613 91.6338 84.836C91.3164 85.8107 91.1578 86.842 91.1578 87.93C91.1578 89.086 91.3278 90.1513 91.6678 91.126C92.0304 92.1007 92.5291 92.9507 93.1638 93.676C93.8211 94.4013 94.5804 94.9793 95.4418 95.41C96.3031 95.818 97.2551 96.022 98.2978 96.022C99.5218 96.022 100.689 95.7047 101.8 95.07C102.933 94.4353 103.987 93.506 104.962 92.282V96.906C102.944 99.082 100.587 100.17 97.8898 100.17ZM104.622 91.024H99.7598V87.59H108.498V100H104.622V91.024ZM122.798 100.17C121.03 100.17 119.421 99.83 117.97 99.15C116.542 98.47 115.307 97.552 114.264 96.396C113.244 95.2173 112.451 93.9027 111.884 92.452C111.318 90.9787 111.034 89.4713 111.034 87.93C111.034 86.3207 111.329 84.7907 111.918 83.34C112.53 81.8667 113.358 80.5633 114.4 79.43C115.466 78.274 116.712 77.3673 118.14 76.71C119.591 76.03 121.178 75.69 122.9 75.69C124.646 75.69 126.232 76.0413 127.66 76.744C129.111 77.4467 130.346 78.3873 131.366 79.566C132.386 80.7447 133.18 82.0593 133.746 83.51C134.313 84.9607 134.596 86.4567 134.596 87.998C134.596 89.5847 134.302 91.1147 133.712 92.588C133.123 94.0387 132.296 95.342 131.23 96.498C130.188 97.6313 128.941 98.5267 127.49 99.184C126.062 99.8413 124.498 100.17 122.798 100.17ZM115.794 87.93C115.794 88.9727 115.953 89.9813 116.27 90.956C116.588 91.9307 117.041 92.8033 117.63 93.574C118.242 94.322 118.979 94.9227 119.84 95.376C120.724 95.8067 121.722 96.022 122.832 96.022C123.966 96.022 124.974 95.7953 125.858 95.342C126.742 94.866 127.479 94.2427 128.068 93.472C128.658 92.6787 129.1 91.806 129.394 90.854C129.712 89.8793 129.87 88.9047 129.87 87.93C129.87 86.8873 129.7 85.89 129.36 84.938C129.043 83.9633 128.578 83.102 127.966 82.354C127.377 81.5833 126.64 80.9827 125.756 80.552C124.895 80.0987 123.92 79.872 122.832 79.872C121.676 79.872 120.656 80.11 119.772 80.586C118.911 81.0393 118.186 81.6513 117.596 82.422C117.007 83.1927 116.554 84.054 116.236 85.006C115.942 85.958 115.794 86.9327 115.794 87.93Z" fill="#BDBDBD"/>
</svg>
