<svg width="335" height="335" viewBox="0 0 335 335" fill="none" xmlns="http://www.w3.org/2000/svg">
<path d="M10 167.5C4.47716 167.5 -0.0311277 171.981 0.298327 177.494C2.25403 210.221 13.7804 241.736 33.5528 268.07C55.3313 297.077 85.9371 318.23 120.769 328.349C155.601 338.469 192.777 337.008 226.707 324.187C260.638 311.366 289.489 287.877 308.925 257.251C328.361 226.625 337.33 190.518 334.484 154.358C331.638 118.198 317.131 83.9384 293.144 56.7302C269.156 29.5221 236.985 10.8357 201.467 3.48017C169.22 -3.1978 135.796 -0.208533 105.352 11.956C100.224 14.0053 98.0882 19.9925 100.44 24.9898L120.451 67.5166C122.803 72.5138 128.748 74.6072 133.954 72.7637C151.197 66.6581 169.845 65.3532 187.88 69.0881C209.191 73.5014 228.494 84.7133 242.886 101.038C257.278 117.363 265.983 137.919 267.69 159.615C269.398 181.311 264.016 202.975 252.355 221.351C240.694 239.726 223.383 253.819 203.024 261.512C182.666 269.205 160.361 270.081 139.461 264.01C118.562 257.938 100.199 245.246 87.1317 227.842C76.0734 213.114 69.3139 195.685 67.497 177.484C66.9484 171.988 62.5228 167.5 57 167.5H10Z" fill="#FF6E4E"/>
<path d="M93.5582 28.4358C90.9654 23.5594 84.8923 21.6826 80.1793 24.5617C70.8927 30.2349 62.1809 36.7997 54.1677 44.1629C50.101 47.8997 50.2311 54.2548 54.2039 58.0913L88.0129 90.7403C91.9857 94.5768 98.2869 94.4226 102.499 90.8506C105.442 88.3549 108.526 86.0307 111.737 83.8897C116.331 80.8253 118.216 74.8107 115.623 69.9343L93.5582 28.4358Z" fill="#464747"/>
<path d="M48.6332 64.1707C44.4651 60.5474 38.1225 60.9719 34.7543 65.3488C16.2443 89.4017 4.61578 118.039 1.11694 148.188C0.480255 153.674 4.73135 158.4 10.2456 158.708L57.1723 161.332C62.6865 161.64 67.3557 157.406 68.2102 151.949C70.6086 136.635 76.5193 122.078 85.4768 109.427C88.6681 104.92 88.2727 98.6288 84.1046 95.0055L48.6332 64.1707Z" fill="#464747"/>
</svg>
