<svg width="532" height="357" viewBox="0 0 532 357" fill="none" xmlns="http://www.w3.org/2000/svg">
<rect width="532" height="357" fill="#E5E5E5"/>
<g clip-path="url(#clip0_0_1)">
<rect width="1440" height="12587" transform="translate(-770 -4903)" fill="#F7F7F7"/>
<g filter="url(#filter0_d_0_1)">
<rect x="-750" y="-327" width="1400" height="800" rx="20" fill="white" fill-opacity="0.6" shape-rendering="crispEdges"/>
</g>
<g filter="url(#filter1_d_0_1)">
<mask id="path-2-outside-1_0_1" maskUnits="userSpaceOnUse" x="255" y="107.841" width="58" height="76" fill="black">
<rect fill="white" x="255" y="107.841" width="58" height="76"/>
<path d="M283.627 111.841C270.048 111.841 259 122.749 259 136.156C259 152.795 281.039 177.222 281.977 178.254C282.858 179.223 284.397 179.222 285.277 178.254C286.215 177.222 308.254 152.795 308.254 136.156C308.253 122.749 297.206 111.841 283.627 111.841ZM283.627 148.39C276.795 148.39 271.237 142.902 271.237 136.156C271.237 129.41 276.795 123.923 283.627 123.923C290.459 123.923 296.017 129.411 296.017 136.156C296.017 142.902 290.459 148.39 283.627 148.39Z"/>
</mask>
<path d="M283.627 111.841C270.048 111.841 259 122.749 259 136.156C259 152.795 281.039 177.222 281.977 178.254C282.858 179.223 284.397 179.222 285.277 178.254C286.215 177.222 308.254 152.795 308.254 136.156C308.253 122.749 297.206 111.841 283.627 111.841ZM283.627 148.39C276.795 148.39 271.237 142.902 271.237 136.156C271.237 129.41 276.795 123.923 283.627 123.923C290.459 123.923 296.017 129.411 296.017 136.156C296.017 142.902 290.459 148.39 283.627 148.39Z" fill="#FF6E4E"/>
<path d="M283.627 111.841C270.048 111.841 259 122.749 259 136.156C259 152.795 281.039 177.222 281.977 178.254C282.858 179.223 284.397 179.222 285.277 178.254C286.215 177.222 308.254 152.795 308.254 136.156C308.253 122.749 297.206 111.841 283.627 111.841ZM283.627 148.39C276.795 148.39 271.237 142.902 271.237 136.156C271.237 129.41 276.795 123.923 283.627 123.923C290.459 123.923 296.017 129.411 296.017 136.156C296.017 142.902 290.459 148.39 283.627 148.39Z" stroke="#F7F7F7" stroke-width="8" mask="url(#path-2-outside-1_0_1)"/>
</g>
<mask id="path-3-inside-2_0_1" fill="white">
<path fill-rule="evenodd" clip-rule="evenodd" d="M173.19 307.386C173.19 307.386 173.19 315.225 186.145 315.225C199.099 315.225 209.966 313.163 216.652 308.211C223.341 303.259 230.862 294.181 241.729 285.928C252.593 277.676 254.268 271.897 260.117 264.883C265.968 257.867 289.37 254.152 297.729 263.232C306.087 272.31 314.446 278.499 321.55 278.499C328.656 278.499 347.046 276.021 339.942 284.274C332.84 292.527 318.629 291.701 311.107 302.018C303.585 312.335 310.272 317.285 314.034 317.285C317.795 317.285 330.332 317.285 332.003 323.064C333.676 328.841 339.944 330.905 339.944 339.156C339.944 347.407 340.362 358.139 352.066 355.661C363.768 353.186 367.528 335.441 376.303 334.204C385.081 332.965 393.021 334.616 396.366 328.839C399.711 323.062 405.56 323.474 414.756 323.474C423.948 323.474 432.724 318.522 433.144 311.92C433.564 305.319 443.173 282.623 431.054 291.288C418.934 299.952 416.844 307.795 408.068 308.619C399.291 309.444 387.591 309.857 383.828 299.952C380.068 290.049 370.456 282.21 379.65 276.846C388.844 271.481 407.232 259.102 411.83 255.387C416.428 251.672 443.177 244.654 453.209 242.179C463.238 239.703 477.448 237.64 482.464 233.926C487.477 230.213 481.211 220.308 484.554 212.882C487.897 205.455 502.944 195.551 507.122 195.963C511.301 196.375 529.689 195.551 529.689 189.361C529.689 183.17 534.285 176.158 526.763 167.078C519.242 158 509.211 158 516.316 150.986C523.422 143.97 528.02 136.539 528.02 127.874C528.02 119.208 533.454 113.019 519.87 113.019C506.287 113.019 486.855 104.353 486.855 104.353C486.855 104.353 461.367 108.27 453.841 97.3349C446.318 86.3994 451.124 78.3524 437.543 81.8594C423.96 85.3685 421.452 91.1455 411.631 89.2879C401.811 87.4303 395.96 91.7621 391.779 85.1603C387.599 78.5585 388.434 68.4477 388.227 63.7035C388.019 58.9593 375.899 57.1017 361.48 53.1823C347.062 49.2609 356.047 35.643 356.047 35.643C356.047 35.643 358.766 20.1675 351.033 16.0419C343.301 11.9162 333.689 0.980677 331.392 0.568308C329.091 0.155939 311.747 4.4897 306.942 8.61534C302.138 12.741 298.377 13.7738 295.451 17.6933C292.526 21.6127 264.959 11.2374 260.781 23.6162C256.602 35.9931 258.269 50.0273 257.438 59.1013C256.222 72.3672 246.565 79.7898 237.927 61.7798C234.168 53.9428 230.125 50.7061 228.035 49.4671C225.945 48.23 223.437 45.5457 215.916 43.69C208.394 41.8344 199.75 33.161 189.301 33.161C178.852 33.161 159.002 29.6539 147.926 22.4336C136.851 15.2113 101.851 14.2796 95.163 14.0734C88.4748 13.8672 82.2081 25.4233 74.8934 24.8028C67.5787 24.1823 61.9366 20.6752 61.5189 29.7551C61.1013 38.833 67.9964 45.0244 67.9964 52.2447C67.9964 59.467 66.9523 68.1307 65.4905 71.2273C64.0268 74.322 25.373 104.444 24.9534 111.046C24.5337 117.648 33.7298 132.093 23.6985 135.392C13.6691 138.692 2.38281 147.77 0.294583 154.374C-1.79364 160.976 7.8181 163.862 10.324 165.516C12.8338 167.165 39.1612 177.895 58.8042 189.036C78.4473 200.178 76.7768 203.479 85.9709 203.479C95.165 203.479 80.9572 191.515 102.688 192.75C124.42 193.987 134.032 182.433 141.137 178.307C148.241 174.181 164.957 173.355 174.151 181.196C183.347 189.036 189.198 196.465 199.227 202.242C209.257 208.019 208.422 218.748 210.512 222.874C212.602 227 229.737 249.692 227.229 258.77C224.72 267.847 203.406 244.739 197.137 256.293C190.869 267.847 202.571 283.942 188.361 292.193C174.147 300.448 173.19 307.386 173.19 307.386V307.386Z"/>
</mask>
<path fill-rule="evenodd" clip-rule="evenodd" d="M173.19 307.386C173.19 307.386 173.19 315.225 186.145 315.225C199.099 315.225 209.966 313.163 216.652 308.211C223.341 303.259 230.862 294.181 241.729 285.928C252.593 277.676 254.268 271.897 260.117 264.883C265.968 257.867 289.37 254.152 297.729 263.232C306.087 272.31 314.446 278.499 321.55 278.499C328.656 278.499 347.046 276.021 339.942 284.274C332.84 292.527 318.629 291.701 311.107 302.018C303.585 312.335 310.272 317.285 314.034 317.285C317.795 317.285 330.332 317.285 332.003 323.064C333.676 328.841 339.944 330.905 339.944 339.156C339.944 347.407 340.362 358.139 352.066 355.661C363.768 353.186 367.528 335.441 376.303 334.204C385.081 332.965 393.021 334.616 396.366 328.839C399.711 323.062 405.56 323.474 414.756 323.474C423.948 323.474 432.724 318.522 433.144 311.92C433.564 305.319 443.173 282.623 431.054 291.288C418.934 299.952 416.844 307.795 408.068 308.619C399.291 309.444 387.591 309.857 383.828 299.952C380.068 290.049 370.456 282.21 379.65 276.846C388.844 271.481 407.232 259.102 411.83 255.387C416.428 251.672 443.177 244.654 453.209 242.179C463.238 239.703 477.448 237.64 482.464 233.926C487.477 230.213 481.211 220.308 484.554 212.882C487.897 205.455 502.944 195.551 507.122 195.963C511.301 196.375 529.689 195.551 529.689 189.361C529.689 183.17 534.285 176.158 526.763 167.078C519.242 158 509.211 158 516.316 150.986C523.422 143.97 528.02 136.539 528.02 127.874C528.02 119.208 533.454 113.019 519.87 113.019C506.287 113.019 486.855 104.353 486.855 104.353C486.855 104.353 461.367 108.27 453.841 97.3349C446.318 86.3994 451.124 78.3524 437.543 81.8594C423.96 85.3685 421.452 91.1455 411.631 89.2879C401.811 87.4303 395.96 91.7621 391.779 85.1603C387.599 78.5585 388.434 68.4477 388.227 63.7035C388.019 58.9593 375.899 57.1017 361.48 53.1823C347.062 49.2609 356.047 35.643 356.047 35.643C356.047 35.643 358.766 20.1675 351.033 16.0419C343.301 11.9162 333.689 0.980677 331.392 0.568308C329.091 0.155939 311.747 4.4897 306.942 8.61534C302.138 12.741 298.377 13.7738 295.451 17.6933C292.526 21.6127 264.959 11.2374 260.781 23.6162C256.602 35.9931 258.269 50.0273 257.438 59.1013C256.222 72.3672 246.565 79.7898 237.927 61.7798C234.168 53.9428 230.125 50.7061 228.035 49.4671C225.945 48.23 223.437 45.5457 215.916 43.69C208.394 41.8344 199.75 33.161 189.301 33.161C178.852 33.161 159.002 29.6539 147.926 22.4336C136.851 15.2113 101.851 14.2796 95.163 14.0734C88.4748 13.8672 82.2081 25.4233 74.8934 24.8028C67.5787 24.1823 61.9366 20.6752 61.5189 29.7551C61.1013 38.833 67.9964 45.0244 67.9964 52.2447C67.9964 59.467 66.9523 68.1307 65.4905 71.2273C64.0268 74.322 25.373 104.444 24.9534 111.046C24.5337 117.648 33.7298 132.093 23.6985 135.392C13.6691 138.692 2.38281 147.77 0.294583 154.374C-1.79364 160.976 7.8181 163.862 10.324 165.516C12.8338 167.165 39.1612 177.895 58.8042 189.036C78.4473 200.178 76.7768 203.479 85.9709 203.479C95.165 203.479 80.9572 191.515 102.688 192.75C124.42 193.987 134.032 182.433 141.137 178.307C148.241 174.181 164.957 173.355 174.151 181.196C183.347 189.036 189.198 196.465 199.227 202.242C209.257 208.019 208.422 218.748 210.512 222.874C212.602 227 229.737 249.692 227.229 258.77C224.72 267.847 203.406 244.739 197.137 256.293C190.869 267.847 202.571 283.942 188.361 292.193C174.147 300.448 173.19 307.386 173.19 307.386V307.386Z" stroke="#FF6E4E" stroke-width="8" mask="url(#path-3-inside-2_0_1)"/>
</g>
<defs>
<filter id="filter0_d_0_1" x="-756" y="-329" width="1412" height="812" filterUnits="userSpaceOnUse" color-interpolation-filters="sRGB">
<feFlood flood-opacity="0" result="BackgroundImageFix"/>
<feColorMatrix in="SourceAlpha" type="matrix" values="0 0 0 0 0 0 0 0 0 0 0 0 0 0 0 0 0 0 127 0" result="hardAlpha"/>
<feOffset dy="4"/>
<feGaussianBlur stdDeviation="3"/>
<feComposite in2="hardAlpha" operator="out"/>
<feColorMatrix type="matrix" values="0 0 0 0 0 0 0 0 0 0 0 0 0 0 0 0 0 0 0.1 0"/>
<feBlend mode="normal" in2="BackgroundImageFix" result="effect1_dropShadow_0_1"/>
<feBlend mode="normal" in="SourceGraphic" in2="effect1_dropShadow_0_1" result="shape"/>
</filter>
<filter id="filter1_d_0_1" x="249" y="105.841" width="69.2537" height="87.1396" filterUnits="userSpaceOnUse" color-interpolation-filters="sRGB">
<feFlood flood-opacity="0" result="BackgroundImageFix"/>
<feColorMatrix in="SourceAlpha" type="matrix" values="0 0 0 0 0 0 0 0 0 0 0 0 0 0 0 0 0 0 127 0" result="hardAlpha"/>
<feOffset dy="4"/>
<feGaussianBlur stdDeviation="3"/>
<feComposite in2="hardAlpha" operator="out"/>
<feColorMatrix type="matrix" values="0 0 0 0 0 0 0 0 0 0 0 0 0 0 0 0 0 0 0.1 0"/>
<feBlend mode="normal" in2="BackgroundImageFix" result="effect1_dropShadow_0_1"/>
<feBlend mode="normal" in="SourceGraphic" in2="effect1_dropShadow_0_1" result="shape"/>
</filter>
<clipPath id="clip0_0_1">
<rect width="1440" height="12587" fill="white" transform="translate(-770 -4903)"/>
</clipPath>
</defs>
</svg>
